<?xml version="1.0" encoding="utf-8"?>
<!-- Generator: Adobe Illustrator 15.1.0, SVG Export Plug-In  -->
<!DOCTYPE svg PUBLIC "-//W3C//DTD SVG 1.1//EN" "http://www.w3.org/Graphics/SVG/1.1/DTD/svg11.dtd" [
	<!ENTITY ns_flows "http://ns.adobe.com/Flows/1.0/">
]>
<svg version="1.1"
	 xmlns="http://www.w3.org/2000/svg" xmlns:xlink="http://www.w3.org/1999/xlink" xmlns:a="http://ns.adobe.com/AdobeSVGViewerExtensions/3.0/"
	 x="0px" y="0px" width="1200px" height="400px" viewBox="-566.354 -136.527 1200 400"
	 overflow="visible" enable-background="new -566.354 -136.527 1200 400" xml:space="preserve">
<defs>
</defs>
<path fill="#FFFFFF" d="M196.348,6.732V0h29.835v6.732h-10.914v29.682h-8.007V6.732H196.348z"/>
<path fill="#FFFFFF" d="M243.828,0l13.617,36.414h-8.313l-2.754-8.109h-13.617l-2.855,8.109h-8.059L235.617,0H243.828z
	 M244.287,22.338l-4.59-13.362h-0.103l-4.742,13.362H244.287z"/>
<path fill="#FFFFFF" d="M268.614,0v15.096L282.843,0h9.996L278.61,14.382l15.605,22.032h-10.047l-10.965-16.371l-4.59,4.641v11.73
	h-8.007V0H268.614z"/>
<path fill="#FFFFFF" d="M324.663,0v6.732h-19.228v7.803h17.646v6.222h-17.646v8.925h19.636v6.732h-27.643V0H324.663z"/>
<path fill="#FFFFFF" d="M341.798,6.732V0h29.836v6.732H360.72v29.682h-8.008V6.732H341.798z"/>
<path fill="#FFFFFF" d="M383.821,0v13.974h14.74V0h8.006v36.414h-8.006V20.706h-14.74v15.708h-8.006V0H383.821z"/>
<path fill="#FFFFFF" d="M440.84,0v6.732h-19.228v7.803h17.646v6.222h-17.646v8.925h19.636v6.732h-27.642V0H440.84z"/>
<path fill="#FFFFFF" d="M78.997,149.291c0.816-2.329,1.988-4.361,3.52-6.096c1.529-1.733,3.408-3.093,5.635-4.079
	c2.227-0.985,4.734-1.479,7.522-1.479c2.821,0,5.337,0.494,7.548,1.479c2.21,0.986,4.08,2.346,5.61,4.079
	c1.53,1.734,2.703,3.767,3.519,6.096c0.816,2.328,1.225,4.854,1.225,7.572c0,2.652-0.408,5.126-1.225,7.422
	c-0.815,2.295-1.988,4.292-3.519,5.992s-3.4,3.034-5.61,4.003c-2.211,0.97-4.727,1.454-7.548,1.454
	c-2.788,0-5.296-0.484-7.522-1.454c-2.227-0.969-4.105-2.303-5.635-4.003c-1.531-1.7-2.703-3.697-3.52-5.992
	c-0.816-2.296-1.225-4.77-1.225-7.422C77.772,154.145,78.181,151.619,78.997,149.291z M86.315,161.326
	c0.357,1.445,0.926,2.746,1.709,3.902c0.781,1.156,1.801,2.082,3.06,2.779c1.257,0.697,2.788,1.045,4.59,1.045
	s3.332-0.348,4.591-1.045c1.257-0.697,2.277-1.623,3.059-2.779c0.782-1.156,1.352-2.457,1.709-3.902
	c0.357-1.444,0.535-2.932,0.535-4.463c0-1.598-0.178-3.144-0.535-4.641c-0.357-1.496-0.927-2.83-1.709-4.004
	c-0.781-1.172-1.802-2.107-3.059-2.805c-1.259-0.696-2.789-1.045-4.591-1.045s-3.333,0.349-4.59,1.045
	c-1.259,0.697-2.278,1.633-3.06,2.805c-0.783,1.174-1.352,2.508-1.709,4.004c-0.357,1.497-0.535,3.043-0.535,4.641
	C85.78,158.395,85.958,159.882,86.315,161.326z"/>
<path fill="#FFFFFF" d="M144.634,138.504v6.732h-17.595v8.414h15.249v6.223h-15.249v15.045h-8.007v-36.414H144.634z"/>
<path fill="#FFFFFF" d="M181.608,138.504l13.617,36.414h-8.313l-2.754-8.109h-13.617l-2.856,8.109h-8.058l13.771-36.414H181.608z
	 M182.067,160.842l-4.59-13.361h-0.103l-4.743,13.361H182.067z"/>
<path fill="#FFFFFF" d="M220.572,138.504v29.682h17.748v6.732h-25.755v-36.414H220.572z"/>
<path fill="#FFFFFF" d="M250.814,138.504v36.414h-8.007v-36.414H250.814z"/>
<path fill="#FFFFFF" d="M283.454,138.504v6.732h-17.595v8.414h15.249v6.223h-15.249v15.045h-8.007v-36.414H283.454z"/>
<path fill="#FFFFFF" d="M315.329,138.504v6.732h-19.228v7.803h17.646v6.222h-17.646v8.925h19.636v6.732h-27.643v-36.414H315.329z"/>
<path fill="#FFFFFF" d="M318.286,145.236v-6.732h29.836v6.732h-10.914v29.682H329.2v-29.682H318.286z"/>
<path fill="#FFFFFF" d="M360.31,138.504v36.414h-8.006v-36.414H360.31z"/>
<path fill="#FFFFFF" d="M378.619,138.504l8.517,25.041h0.103l8.058-25.041h11.271v36.414h-7.497v-25.807h-0.103l-8.925,25.807
	h-6.171l-8.925-25.551h-0.103v25.551h-7.496v-36.414H378.619z"/>
<path fill="#FFFFFF" d="M440.839,138.504v6.732h-19.227v7.803h17.646v6.222h-17.646v8.925h19.635v6.732h-27.643v-36.414H440.839z"/>
<path fill="#FFFFFF" d="M43.838,106.919c-0.439,2.634-1.443,5.096-3.011,7.385c-1.568,2.29-3.826,4.202-6.772,5.738
	c-2.949,1.536-6.931,2.305-11.947,2.305c-2.822,0-5.55-0.393-8.185-1.176c-2.634-0.783-4.986-2.006-7.055-3.669
	c-2.07-1.661-3.732-3.794-4.986-6.396C0.626,108.504,0,105.353,0,101.651v-5.833h13.358v3.011c0,1.631,0.125,3.137,0.376,4.516
	c0.25,1.38,0.689,2.556,1.317,3.527c0.626,0.973,1.489,1.74,2.587,2.305c1.097,0.564,2.524,0.847,4.28,0.847
	c1.943,0,3.449-0.344,4.516-1.035c1.066-0.689,1.834-1.583,2.305-2.681c0.471-1.097,0.753-2.289,0.847-3.575
	c0.094-1.284,0.141-2.523,0.141-3.716V53.674h14.77v46.002C44.497,101.871,44.276,104.285,43.838,106.919z"/>
<path fill="#FFFFFF" d="M56.82,73.57c1.505-4.295,3.669-8.043,6.491-11.242c2.822-3.198,6.287-5.706,10.395-7.525
	c4.107-1.818,8.733-2.729,13.876-2.729c5.205,0,9.846,0.91,13.923,2.729c4.076,1.819,7.526,4.327,10.349,7.525
	c2.822,3.199,4.985,6.947,6.49,11.242c1.506,4.296,2.258,8.953,2.258,13.97c0,4.892-0.752,9.454-2.258,13.688
	c-1.505,4.233-3.668,7.918-6.49,11.054c-2.822,3.137-6.272,5.598-10.349,7.385c-4.077,1.787-8.718,2.681-13.923,2.681
	c-5.143,0-9.769-0.894-13.876-2.681s-7.572-4.248-10.395-7.385c-2.822-3.136-4.986-6.82-6.491-11.054s-2.258-8.796-2.258-13.688
	C54.562,82.523,55.315,77.866,56.82,73.57z M70.319,95.771c0.659,2.666,1.709,5.065,3.152,7.196
	c1.441,2.133,3.323,3.843,5.645,5.127c2.319,1.286,5.142,1.929,8.466,1.929s6.146-0.643,8.467-1.929
	c2.319-1.284,4.201-2.994,5.645-5.127c1.442-2.131,2.493-4.53,3.151-7.196c0.658-2.665,0.988-5.409,0.988-8.231
	c0-2.947-0.33-5.8-0.988-8.561c-0.658-2.759-1.709-5.221-3.151-7.385c-1.443-2.164-3.325-3.888-5.645-5.174
	c-2.321-1.285-5.143-1.929-8.467-1.929s-6.146,0.644-8.466,1.929c-2.321,1.286-4.203,3.01-5.645,5.174
	c-1.443,2.164-2.493,4.626-3.152,7.385c-0.658,2.761-0.987,5.613-0.987,8.561C69.332,90.362,69.661,93.106,70.319,95.771z"/>
<path fill="#FFFFFF" d="M180.056,115.715c-5.08,4.422-12.105,6.632-21.072,6.632c-9.094,0-16.134-2.194-21.119-6.585
	c-4.986-4.389-7.479-11.162-7.479-20.319V53.674h14.769v41.769c0,1.819,0.156,3.606,0.471,5.362
	c0.313,1.756,0.972,3.309,1.976,4.656c1.003,1.35,2.398,2.446,4.186,3.293c1.787,0.846,4.188,1.27,7.197,1.27
	c5.268,0,8.904-1.176,10.912-3.527c2.006-2.353,3.01-6.036,3.01-11.054V53.674h14.77v41.769
	C187.675,104.536,185.136,111.293,180.056,115.715z"/>
<path fill="#FFFFFF" d="M236.593,53.674c3.011,0,5.723,0.486,8.138,1.458c2.413,0.973,4.482,2.305,6.209,3.998
	c1.724,1.693,3.041,3.654,3.95,5.88c0.909,2.227,1.364,4.626,1.364,7.196c0,3.951-0.832,7.37-2.493,10.254
	c-1.662,2.886-4.374,5.08-8.137,6.585v0.188c1.818,0.503,3.323,1.27,4.516,2.305c1.19,1.035,2.163,2.258,2.916,3.669
	s1.301,2.963,1.646,4.656c0.344,1.693,0.579,3.387,0.705,5.08c0.062,1.067,0.125,2.321,0.188,3.763
	c0.062,1.443,0.172,2.917,0.329,4.422c0.156,1.505,0.407,2.933,0.753,4.28c0.344,1.35,0.861,2.493,1.552,3.434h-14.77
	c-0.815-2.131-1.316-4.671-1.505-7.62c-0.188-2.947-0.471-5.77-0.847-8.467c-0.503-3.511-1.568-6.082-3.198-7.714
	c-1.632-1.63-4.297-2.445-7.996-2.445h-14.77v26.246h-14.77V53.674H236.593z M231.325,84.06c3.386,0,5.926-0.753,7.619-2.258
	s2.54-3.951,2.54-7.338c0-3.26-0.847-5.628-2.54-7.103c-1.693-1.473-4.233-2.211-7.619-2.211h-16.181V84.06H231.325z"/>
<path fill="#FFFFFF" d="M282.97,53.674l28.034,45.061h0.188V53.674h13.828v67.168h-14.77l-27.939-44.967h-0.188v44.967h-13.828
	V53.674H282.97z"/>
<path fill="#FFFFFF" d="M388.236,53.674v12.418h-35.465v14.393h32.549v11.477h-32.549v16.463h36.218v12.418h-50.987V53.674H388.236z
	"/>
<path fill="#FFFFFF" d="M391.717,53.674h16.558l15.71,26.528l15.616-26.528h16.463l-24.93,41.392v25.776h-14.77V94.689
	L391.717,53.674z"/>
</svg>
