<?xml version="1.0" encoding="utf-8"?>
<!-- Generator: Adobe Illustrator 15.1.0, SVG Export Plug-In  -->
<!DOCTYPE svg PUBLIC "-//W3C//DTD SVG 1.1//EN" "http://www.w3.org/Graphics/SVG/1.1/DTD/svg11.dtd" [
	<!ENTITY ns_flows "http://ns.adobe.com/Flows/1.0/">
]>
<svg version="1.1"
	 xmlns="http://www.w3.org/2000/svg" xmlns:xlink="http://www.w3.org/1999/xlink" xmlns:a="http://ns.adobe.com/AdobeSVGViewerExtensions/3.0/"
	 x="0px" y="0px" width="224px" height="50px" viewBox="-7.001 -1.95 224 50"
	 overflow="visible" enable-background="new -7.001 -1.95 224 50" xml:space="preserve">
<defs>
</defs>
<rect x="38.999" y="3.05" fill="#00AEDD" width="5" height="39"/>
<path fill-rule="evenodd" clip-rule="evenodd" fill="#00AEDD" d="M26.459,33.854L26.459,33.854l-3.118-11.859
	c-0.042-0.157-0.084-0.313-0.125-0.47c-0.057-0.22-0.188-1.143-0.301-1.859c1.539-1.756,2.972-3.597,4.297-5.521
	c0.664-0.964,1.232-1.987,1.42-3.17c0.143-0.911-0.086-1.303-0.918-1.639c-0.152,0-0.305,0-0.455,0
	c-0.014,0.013-0.026,0.034-0.042,0.037c-0.979,0.209-1.815,0.709-2.589,1.319c-2.058,1.621-3.875,3.5-5.618,5.44
	c-0.459,0.029-1.082,0.078-1.142,0.07c-1.027-0.145-2.055-0.287-3.083-0.431L4.509,14.343c-0.173-0.023-0.343-0.048-0.515-0.072
	c-0.414-0.057-0.827-0.129-1.243-0.151c-0.645-0.035-1.145,0.301-1.589,0.718C0.761,15.212,0.386,15.616,0,16.007
	c0,0.076,0,0.152,0,0.229c0.228,0.146,0.442,0.321,0.688,0.431c0.293,0.131,0.608,0.211,0.918,0.303
	c0.35,0.104,0.7,0.209,1.051,0.313c-0.03,0.344,0.044,0.632,0.236,0.824c0.388,0.388,1.157,0.296,1.998-0.157
	c1.067,0.318,2.134,0.636,3.201,0.954c-0.161,0.628-0.104,1.161,0.219,1.483c0.566,0.567,1.784,0.321,3.034-0.513
	c0.034,0.01,0.069,0.021,0.104,0.031c0.177,0.053,0.35,0.145,0.501,0.251c0.455,0.323,1.355,1.225,2.031,1.839
	c-0.118,0.139-0.236,0.279-0.354,0.418c-0.926,1.084-1.896,2.131-2.772,3.252c-1.134,1.449-2.186,2.953-3.157,4.512
	c-0.694-0.174-1.526-0.375-1.763-0.436c-0.799-0.199-1.596-0.41-2.402-0.574c-0.624-0.129-0.873,0.188-1.11,0.7
	c-0.046,0.102,0.034,0.29,0.106,0.408c0.065,0.106,0.195,0.177,0.304,0.251c0.648,0.449,1.297,0.895,1.947,1.339
	c0.204,0.14,0.897,0.553,1.425,0.872c-0.346,0.637-0.641,1.301-0.938,1.963c-0.116,0.259-0.063,0.5,0.167,0.719
	c0.242,0.23,0.484,0.227,0.754,0.104c0.155-0.069,0.312-0.145,0.448-0.244c0.426-0.312,0.855-0.617,1.284-0.925
	c0.553,0.632,1.347,1.54,1.651,1.886c0.414,0.471,0.829,0.94,1.249,1.406c0.146,0.162,0.32,0.281,0.554,0.177
	c0.453-0.202,0.73-0.676,0.568-1.145c-0.349-1.015-1.061-2.88-1.546-4.167c0.141-0.111,0.285-0.221,0.423-0.335
	c1.426-1.179,2.818-2.415,4.094-3.753c1.07-1.121,2.12-2.266,3.163-3.413c-0.025,0.028-0.051,0.058-0.076,0.086
	c0.498,0.532,1.289,1.454,1.754,1.979c0.135,0.151,0.253,0.326,0.346,0.509c-0.407,0.909-0.445,1.714-0.016,2.144
	c0.25,0.25,0.631,0.339,1.082,0.291c0.452,1.041,0.906,2.082,1.357,3.124c-0.455,0.843-0.548,1.614-0.16,2.002
	c0.244,0.245,0.643,0.297,1.113,0.189c0.295,0.679,0.589,1.357,0.885,2.034c0.154,0.353,0.356,0.691,0.581,1.004
	c0.161,0.224,0.343,0.198,0.517-0.014c0.32-0.389,0.657-0.766,0.945-1.178c0.422-0.603,0.654-1.249,0.414-2.01
	C26.679,34.737,26.569,34.295,26.459,33.854z"/>
<text transform="matrix(1 0 0 1 53.999 17.9644)"><tspan x="0" y="0" fill="#575254" font-family="'Roboto-Regular'" font-size="20.5968">NEW CONCEPTS</tspan><tspan x="0" y="24" fill="#575254" font-family="'Roboto-Black'" font-size="20.5968">IN TRA</tspan><tspan x="66.255" y="24" fill="#575254" font-family="'Roboto-Black'" font-size="20.5968" letter-spacing="1">V</tspan><tspan x="81.099" y="24" fill="#575254" font-family="'Roboto-Black'" font-size="20.5968" letter-spacing="1">E</tspan><tspan x="94.271" y="24" fill="#575254" font-family="'Roboto-Black'" font-size="20.5968">L</tspan></text>
<rect x="38.999" y="3.05" display="none" fill="#00AEDD" width="5" height="39"/>
<path display="none" fill-rule="evenodd" clip-rule="evenodd" fill="#00AEDD" d="M26.459,33.854L26.459,33.854l-3.118-11.859
	c-0.042-0.157-0.084-0.313-0.125-0.47c-0.057-0.22-0.188-1.143-0.301-1.859c1.539-1.756,2.972-3.597,4.297-5.521
	c0.664-0.964,1.232-1.987,1.42-3.17c0.143-0.911-0.086-1.303-0.918-1.639c-0.152,0-0.305,0-0.455,0
	c-0.014,0.013-0.026,0.034-0.042,0.037c-0.979,0.209-1.815,0.709-2.589,1.319c-2.058,1.621-3.875,3.5-5.618,5.44
	c-0.459,0.029-1.082,0.078-1.142,0.07c-1.027-0.145-2.055-0.287-3.083-0.431L4.509,14.343c-0.173-0.023-0.343-0.048-0.515-0.072
	c-0.414-0.057-0.827-0.129-1.243-0.151c-0.645-0.035-1.145,0.301-1.589,0.718C0.761,15.212,0.386,15.616,0,16.007
	c0,0.076,0,0.152,0,0.229c0.228,0.146,0.442,0.321,0.688,0.431c0.293,0.131,0.608,0.211,0.918,0.303
	c0.35,0.104,0.7,0.209,1.051,0.313c-0.03,0.344,0.044,0.632,0.236,0.824c0.388,0.388,1.157,0.296,1.998-0.157
	c1.067,0.318,2.134,0.636,3.201,0.954c-0.161,0.628-0.104,1.161,0.219,1.483c0.566,0.567,1.784,0.321,3.034-0.513
	c0.034,0.01,0.069,0.021,0.104,0.031c0.177,0.053,0.35,0.145,0.501,0.251c0.455,0.323,1.355,1.225,2.031,1.839
	c-0.118,0.139-0.236,0.279-0.354,0.418c-0.926,1.084-1.896,2.131-2.772,3.252c-1.134,1.449-2.186,2.953-3.157,4.512
	c-0.694-0.174-1.526-0.375-1.763-0.436c-0.799-0.199-1.596-0.41-2.402-0.574c-0.624-0.129-0.873,0.188-1.11,0.7
	c-0.046,0.102,0.034,0.29,0.106,0.408c0.065,0.106,0.195,0.177,0.304,0.251c0.648,0.449,1.297,0.895,1.947,1.339
	c0.204,0.14,0.897,0.553,1.425,0.872c-0.346,0.637-0.641,1.301-0.938,1.963c-0.116,0.259-0.063,0.5,0.167,0.719
	c0.242,0.23,0.484,0.227,0.754,0.104c0.155-0.069,0.312-0.145,0.448-0.244c0.426-0.312,0.855-0.617,1.284-0.925
	c0.553,0.632,1.347,1.54,1.651,1.886c0.414,0.471,0.829,0.94,1.249,1.406c0.146,0.162,0.32,0.281,0.554,0.177
	c0.453-0.202,0.73-0.676,0.568-1.145c-0.349-1.015-1.061-2.88-1.546-4.167c0.141-0.111,0.285-0.221,0.423-0.335
	c1.426-1.179,2.818-2.415,4.094-3.753c1.07-1.121,2.12-2.266,3.163-3.413c-0.025,0.028-0.051,0.058-0.076,0.086
	c0.498,0.532,1.289,1.454,1.754,1.979c0.135,0.151,0.253,0.326,0.346,0.509c-0.407,0.909-0.445,1.714-0.016,2.144
	c0.25,0.25,0.631,0.339,1.082,0.291c0.452,1.041,0.906,2.082,1.357,3.124c-0.455,0.843-0.548,1.614-0.16,2.002
	c0.244,0.245,0.643,0.297,1.113,0.189c0.295,0.679,0.589,1.357,0.885,2.034c0.154,0.353,0.356,0.691,0.581,1.004
	c0.161,0.224,0.343,0.198,0.517-0.014c0.32-0.389,0.657-0.766,0.945-1.178c0.422-0.603,0.654-1.249,0.414-2.01
	C26.679,34.737,26.569,34.295,26.459,33.854z"/>
<g display="none">
	<text transform="matrix(1 0 0 1 52.9351 17.4043)" display="inline"><tspan x="0" y="0" fill="#575254" font-family="'Poppins-Light'" font-size="20.5968">NEW CONCEPTS</tspan><tspan x="0" y="24.716" fill="#575254" font-family="'Poppins'" font-size="20.5968">IN TRAVEL</tspan></text>
</g>
</svg>
