<?xml version="1.0" encoding="utf-8"?>
<!-- Generator: Adobe Illustrator 15.1.0, SVG Export Plug-In  -->
<!DOCTYPE svg PUBLIC "-//W3C//DTD SVG 1.1//EN" "http://www.w3.org/Graphics/SVG/1.1/DTD/svg11.dtd" [
	<!ENTITY ns_flows "http://ns.adobe.com/Flows/1.0/">
]>
<svg version="1.1"
	 xmlns="http://www.w3.org/2000/svg" xmlns:xlink="http://www.w3.org/1999/xlink" xmlns:a="http://ns.adobe.com/AdobeSVGViewerExtensions/3.0/"
	 x="0px" y="0px" width="800px" height="800px" viewBox="77.097 69.886 800 800"
	 overflow="visible" enable-background="new 77.097 69.886 800 800" xml:space="preserve">
<defs>
</defs>
<g>
	<defs>
		<rect id="SVGID_1_" x="77.096" y="69.886" width="800" height="799.999"/>
	</defs>
	<clipPath id="SVGID_2_">
		<use xlink:href="#SVGID_1_"  overflow="visible"/>
	</clipPath>
	<rect x="62.096" y="54.886" clip-path="url(#SVGID_2_)" fill="#6DCFF6" width="830" height="829.999"/>
	<g clip-path="url(#SVGID_2_)">
		<path fill="#00A1E4" d="M267.818,346.627l-42.328,14.28c7.28,9.484,13.219,5.758,13.219,5.758l64.42-9.848l7.084,3.672
			c18.861,29.067,30.377,28.527,30.377,28.527s3.835-10.873-18.568-37.307l-1.476-7.842l27.984-58.853c0,0,5.28-4.614-1.706-14.318
			l-25.867,36.421l-16.476,16.376l-35.992-40.396l7.604-15.051c0,0,2.773-3.667-1.105-8.576l-2.304-3.1l-16.269,19.43l-23.291,9.981
			l2.304,3.1c3.585,5.129,7.896,3.528,7.896,3.528l16.604-2.947l28.316,46.103L267.818,346.627z"/>
		<path fill="#FFFFFF" d="M646.615,176.662l-40.924,17.913c8.078,8.814,13.671,4.585,13.671,4.585l63.316-15.421l7.378,3.042
			c21.32,27.315,32.746,25.773,32.746,25.773s2.874-11.166-21.747-35.547l-2.151-7.683l22.754-61.068c0,0,4.856-5.055-2.947-14.114
			l-22.598,38.535l-14.987,17.747l-39.372-37.107l6.265-15.656c0,0,2.443-3.896-1.848-8.446l-2.565-2.891l-14.514,20.776
			l-22.335,11.97l2.563,2.888c4.02,4.798,8.174,2.827,8.174,2.827l16.285-4.382l32.223,43.462L646.615,176.662z"/>
		<path fill="#FFFFFF" d="M1010.511,268.488c-0.449-0.022-0.895-0.033-1.336-0.033c-1.781,0-3.494,0.182-5.139,0.524l0.818,3.916
			c1.376-0.287,2.811-0.44,4.32-0.44c0.374,0,0.753,0.01,1.137,0.028L1010.511,268.488z"/>
		<path fill="#00A1E4" d="M41.113,210.102c-2.311,3.508-4.376,7.054-6.148,10.525l3.562,1.818c1.701-3.333,3.694-6.756,5.926-10.143
			L41.113,210.102z M56.62,191.332c-2.914,2.783-5.689,5.805-8.285,8.964l3.09,2.54c2.503-3.046,5.172-5.951,7.958-8.611
			L56.62,191.332z M77.087,177.718c-3.757,1.402-7.428,3.399-10.971,5.831l2.264,3.297c3.321-2.279,6.717-4.116,10.105-5.38
			L77.087,177.718z M101.892,178.57c-3.543-1.872-7.667-2.952-12.361-3.069l-0.102,3.998c4.148,0.108,7.619,1.04,10.597,2.608
			L101.892,178.57z M117.053,198.187c-1.455-4.084-3.295-7.859-5.648-11.133l-3.247,2.336c2.077,2.888,3.77,6.325,5.127,10.139
			L117.053,198.187z M121.764,222.117c-0.357-4.057-0.87-8.114-1.603-12.056l-3.933,0.731c0.704,3.785,1.202,7.72,1.551,11.675
			L121.764,222.117z M122.528,246.237c0.008-1.109,0.012-2.244,0.012-3.4c0-2.775-0.027-5.674-0.108-8.642l-3.998,0.109
			c0.08,2.921,0.106,5.783,0.106,8.532c0,1.146-0.004,2.271-0.012,3.373L122.528,246.237z M122.277,270.169
			c0.033-4.309,0.139-8.325,0.139-11.766v-0.213l-4-0.003v0.216c0,3.36-0.105,7.382-0.139,11.735L122.277,270.169z M123.673,293.694
			c-0.637-3.763-1-7.723-1.197-11.671l-3.995,0.199c0.203,4.061,0.577,8.169,1.248,12.139L123.673,293.694z M132.942,313.732
			c-2.642-2.24-4.676-5.304-6.221-8.97l-3.686,1.554c1.719,4.08,4.073,7.711,7.317,10.466L132.942,313.732z M153.575,316.705
			c-2.354,0.832-4.889,1.301-7.705,1.313h0.058h-0.057h-0.12c-1.064,0-2.074-0.06-3.032-0.175l-0.475,3.972
			c1.123,0.135,2.292,0.203,3.507,0.203h0.136l0,0c3.254-0.013,6.259-0.562,9.023-1.543L153.575,316.705z M170.685,302.21
			c-2.452,3.227-4.98,6.193-7.698,8.648l2.682,2.968c2.988-2.701,5.663-5.858,8.201-9.195L170.685,302.21z M184.847,282.804
			c-2.558,3.092-4.928,6.411-7.249,9.727l3.277,2.294c2.305-3.294,4.619-6.527,7.054-9.471L184.847,282.804z M204.987,268.584
			c-0.741,0.222-1.479,0.454-2.213,0.696c-3.346,1.102-6.35,2.777-9.081,4.828l2.402,3.199c2.444-1.835,5.055-3.28,7.931-4.229
			c0.699-0.23,1.402-0.451,2.107-0.662L204.987,268.584z M229.29,265.476c-1.134-0.063-2.271-0.095-3.409-0.095
			c-2.964,0-5.94,0.21-8.903,0.604l0.529,3.965c2.798-0.373,5.599-0.569,8.374-0.569c1.066,0,2.129,0.029,3.187,0.088
			L229.29,265.476z M252.907,272.574c-3.608-2.219-7.438-3.877-11.395-5.038l-1.126,3.839c3.639,1.067,7.134,2.584,10.426,4.606
			L252.907,272.574z M270.039,290.171c-2.277-3.32-4.661-6.643-7.496-9.688l-2.928,2.726c2.607,2.799,4.882,5.952,7.125,9.224
			L270.039,290.171z M284.2,309.479c-1.624-2.449-3.371-4.85-5.335-7.134c-0.691-0.805-1.361-1.633-2.016-2.479l-3.164,2.446
			c0.69,0.893,1.403,1.774,2.146,2.64c1.825,2.123,3.476,4.386,5.035,6.737L284.2,309.479z M296.827,329.636
			c-0.739-0.967-1.444-1.948-2.103-2.955c-1.466-2.242-2.854-4.558-4.238-6.9l-3.444,2.034c1.393,2.357,2.812,4.726,4.335,7.055
			c0.722,1.105,1.485,2.166,2.271,3.196L296.827,329.636z M311.319,348.898c-0.392-0.658-0.775-1.326-1.151-2.006
			c-1.653-2.984-3.649-5.629-5.716-8.135l-3.086,2.546c1.992,2.413,3.828,4.863,5.302,7.526c0.396,0.717,0.802,1.421,1.214,2.114
			L311.319,348.898z M325.656,367.536c-2.707-3.061-5.272-6.011-7.662-9.039l-3.141,2.479c2.471,3.129,5.086,6.135,7.808,9.211
			L325.656,367.536z M341.459,385.011c-2.887-2.35-5.369-5.134-8.029-8.313l-3.067,2.566c2.704,3.229,5.354,6.228,8.571,8.849
			L341.459,385.011z M362.484,393.377c-2.488-0.438-5.009-0.999-7.56-1.687c-1.312-0.354-2.535-0.741-3.681-1.161l-1.375,3.757
			c1.261,0.461,2.596,0.884,4.015,1.267c2.663,0.718,5.299,1.304,7.905,1.764L362.484,393.377z M385.701,394.012
			c-3.083,0.391-6.225,0.593-9.425,0.593c-0.729,0-1.459-0.01-2.192-0.031l-0.115,3.998c0.772,0.022,1.541,0.033,2.308,0.033
			c3.368,0,6.679-0.213,9.929-0.625L385.701,394.012z M408.007,387.608c-3.544,1.613-7.185,2.972-10.921,4.05l1.108,3.843
			c3.932-1.134,7.757-2.562,11.47-4.252L408.007,387.608z M427.837,375.263c-3.082,2.471-6.266,4.746-9.547,6.8l2.122,3.391
			c3.421-2.142,6.73-4.507,9.927-7.069L427.837,375.263z M444.637,358.808c-2.572,3.022-5.247,5.908-8.021,8.637l2.805,2.852
			c2.862-2.815,5.617-5.788,8.262-8.896L444.637,358.808z M458.523,339.699c-2.096,3.364-4.296,6.645-6.596,9.818l3.239,2.348
			c2.357-3.254,4.608-6.61,6.752-10.052L458.523,339.699z M469.744,318.843c-1.656,3.583-3.42,7.125-5.289,10.604l3.523,1.894
			c1.908-3.553,3.708-7.166,5.396-10.82L469.744,318.843z M478.429,296.791c-1.225,3.723-2.568,7.448-4.027,11.153l3.722,1.465
			c1.487-3.776,2.856-7.572,4.105-11.368L478.429,296.791z M484.49,273.888c-0.759,3.801-1.654,7.656-2.685,11.539l3.866,1.026
			c1.051-3.962,1.966-7.897,2.74-11.782L484.49,273.888z M487.472,250.432c-0.102,1.759-0.226,3.491-0.366,5.188
			c-0.18,2.163-0.412,4.362-0.697,6.593l3.968,0.507c0.292-2.286,0.531-4.544,0.716-6.769c0.144-1.729,0.27-3.495,0.373-5.288
			L487.472,250.432z M487.265,226.802c0.339,3.92,0.501,7.879,0.524,11.798l4-0.024c-0.024-4.013-0.19-8.077-0.539-12.117
			L487.265,226.802z M482.662,203.89c1.259,3.564,2.249,7.35,3.009,11.267l3.927-0.762c-0.792-4.081-1.829-8.056-3.163-11.837
			L482.662,203.89z M470.513,184.787c2.814,2.463,5.214,5.387,7.252,8.685l3.402-2.104c-2.22-3.592-4.872-6.837-8.021-9.592
			L470.513,184.787z M449.907,176.4c4.113,0.371,7.771,1.248,11.036,2.546l1.479-3.717c-3.646-1.45-7.691-2.411-12.155-2.812
			L449.907,176.4z M427.785,180.009c3.051-1.657,6.567-2.821,10.641-3.375l-0.539-3.964c-4.511,0.612-8.515,1.924-12.011,3.823
			L427.785,180.009z M413.811,197.021c1.409-3.69,3.234-7.019,5.509-9.866l-3.126-2.496c-2.572,3.221-4.586,6.92-6.12,10.935
			L413.811,197.021z M410.025,219.803c0.024-3.983,0.312-7.892,0.897-11.624l-3.952-0.619c-0.619,3.955-0.92,8.059-0.945,12.219
			L410.025,219.803z M412.595,243.103c-0.836-3.783-1.491-7.678-1.931-11.592l-3.975,0.446c0.456,4.06,1.134,8.091,2,12.008
			L412.595,243.103z M420.209,265.208c-1.635-3.245-3.144-6.888-4.469-10.792l-3.787,1.285c1.379,4.062,2.953,7.871,4.683,11.306
			L420.209,265.208L420.209,265.208z M433.934,283.978c-2.715-2.829-5.245-5.814-7.563-8.935l-3.211,2.386
			c2.421,3.258,5.061,6.37,7.888,9.318L433.934,283.978z M452.031,298.816c-3.297-2.111-6.47-4.413-9.489-6.887l-2.535,3.095
			c3.142,2.573,6.439,4.966,9.868,7.16L452.031,298.816z M473.084,309.034c-3.687-1.271-7.305-2.772-10.826-4.483l-1.748,3.598
			c3.663,1.78,7.429,3.342,11.271,4.667L473.084,309.034z M495.938,313.779c-3.88-0.279-7.747-0.827-11.573-1.627l-0.817,3.916
			c3.995,0.834,8.039,1.408,12.104,1.701L495.938,313.779z M519.164,312.127c-1.966,0.417-3.981,0.775-6.052,1.073
			c-1.83,0.263-3.667,0.459-5.506,0.591l0.285,3.989c1.933-0.139,3.863-0.345,5.789-0.621c2.157-0.31,4.26-0.685,6.313-1.119
			L519.164,312.127z M541.12,304.312c-3.411,1.751-6.972,3.31-10.718,4.644l1.342,3.768c3.919-1.395,7.644-3.025,11.203-4.853
			L541.12,304.312z M560.613,291.292c-3.041,2.498-6.169,4.859-9.418,7.047l2.234,3.317c3.368-2.268,6.597-4.706,9.723-7.273
			L560.613,291.292z M577.953,275.12c-2.799,2.854-5.613,5.646-8.476,8.34l2.741,2.913c2.914-2.742,5.766-5.572,8.59-8.451
			L577.953,275.12z M594.54,257.862c-2.808,2.888-5.563,5.784-8.301,8.655l2.895,2.76c2.739-2.872,5.486-5.759,8.274-8.626
			L594.54,257.862z M611.964,241.188c-0.43,0.367-0.855,0.737-1.277,1.109c-2.617,2.309-5.155,4.668-7.634,7.058l2.777,2.88
			c2.442-2.355,4.938-4.675,7.503-6.938c0.407-0.358,0.817-0.716,1.231-1.07L611.964,241.188z M632.273,227.681
			c-3.613,1.727-7.173,3.801-10.613,6.114l2.232,3.319c3.298-2.218,6.695-4.194,10.105-5.824L632.273,227.681z M656.478,222.608
			c-1.212-0.143-2.436-0.211-3.669-0.211c-2.93,0-5.908,0.387-8.896,1.088l0.914,3.895c2.729-0.642,5.404-0.982,7.981-0.982
			c1.085,0,2.152,0.061,3.2,0.184L656.478,222.608z M677.216,236.214c-2.54-3.938-5.485-6.978-8.736-9.183l-2.246,3.31
			c2.766,1.878,5.332,4.497,7.622,8.043L677.216,236.214z M686.562,258.724c-1.291-3.849-2.609-7.66-4.016-11.362l-3.739,1.42
			c1.377,3.626,2.68,7.39,3.963,11.215L686.562,258.724z M694.292,281.31c-1.379-3.652-2.68-7.416-3.954-11.217l-3.793,1.271
			c1.282,3.824,2.599,7.634,4.005,11.358L694.292,281.31z M704.588,302.341c-2.099-3.101-3.985-6.517-5.719-10.154l-3.611,1.721
			c1.801,3.777,3.779,7.367,6.017,10.675L704.588,302.341z M721.463,317.133c-3.529-1.524-6.64-3.585-9.439-6.101l-2.674,2.975
			c3.088,2.776,6.575,5.093,10.527,6.798L721.463,317.133z M743.869,319.658c-2.443,0.304-4.756,0.448-6.948,0.448
			c-1.571,0-3.081-0.074-4.532-0.219l-0.396,3.98c1.588,0.158,3.229,0.238,4.928,0.238c2.368,0,4.847-0.156,7.441-0.479
			L743.869,319.658z M766.111,313.05c-3.43,1.585-7.001,3.13-10.853,4.261l1.127,3.838c4.154-1.221,7.914-2.855,11.403-4.467
			L766.111,313.05z M790.017,306.77c-1.245-0.237-2.479-0.346-3.696-0.346c-3.126,0.001-6.128,0.711-9.082,1.752l1.33,3.772
			c2.693-0.95,5.241-1.525,7.752-1.524c0.98,0,1.959,0.087,2.949,0.275L790.017,306.77z M809.817,321.781
			c-1.708-2.295-3.547-4.459-5.524-6.464c-0.963-0.977-1.915-1.862-2.857-2.662l-2.589,3.049c0.845,0.717,1.711,1.522,2.599,2.423
			c1.838,1.862,3.557,3.885,5.163,6.043L809.817,321.781z M821.244,343.355c-1.444-3.846-3.085-7.586-4.945-11.155l-3.547,1.849
			c1.776,3.408,3.354,7.002,4.747,10.713L821.244,343.355z M827.636,366.758c-0.736-3.936-1.625-7.897-2.685-11.822l-3.862,1.043
			c1.03,3.813,1.896,7.674,2.615,11.516L827.636,366.758z M830.437,390.779c-0.009-0.166-0.018-0.326-0.025-0.479
			c-0.191-3.709-0.508-7.591-0.97-11.571l-3.973,0.462c0.451,3.892,0.761,7.689,0.948,11.315c0.008,0.156,0.017,0.319,0.025,0.488
			L830.437,390.779z M831.358,414.788c-0.035-4.307-0.158-8.396-0.308-12.029l-3.996,0.164c0.147,3.6,0.27,7.646,0.304,11.898
			L831.358,414.788z M830.313,438.938c0.443-3.916,0.721-8.002,0.879-12.088l-3.997-0.154c-0.155,4.008-0.427,8-0.856,11.791
			L830.313,438.938z M822.817,462.581c2.457-2.898,4.114-6.906,5.354-11.581l-3.868-1.019c-1.138,4.353-2.691,7.868-4.528,10.004
			L822.817,462.581z M802.209,454.771c0.819,2.275,1.786,4.418,2.979,6.279c1.194,1.855,2.623,3.452,4.43,4.52l2.027-3.448
			c-1.067-0.623-2.125-1.724-3.091-3.232c-0.968-1.504-1.835-3.393-2.582-5.473L802.209,454.771z M797.16,430.999
			c0.121,0.742,0.247,1.486,0.378,2.231c0.385,2.183,0.873,5.716,1.61,9.638l3.931-0.739c-0.718-3.817-1.195-7.278-1.602-9.591
			c-0.128-0.729-0.251-1.456-0.369-2.181L797.16,430.999z M794.909,406.925c0.105,3.981,0.339,8.003,0.719,12.073l3.982-0.371
			c-0.371-3.979-0.599-7.912-0.702-11.808L794.909,406.925z M795.733,382.798c-0.359,3.984-0.621,7.996-0.765,12.043l3.998,0.142
			c0.141-3.969,0.396-7.907,0.751-11.825L795.733,382.798z M798.952,358.933c-0.684,3.953-1.308,7.913-1.851,11.891l3.963,0.542
			c0.536-3.925,1.152-7.838,1.829-11.751L798.952,358.933z M803.584,335.378c-0.835,3.923-1.651,7.835-2.428,11.745l3.924,0.779
			c0.771-3.885,1.583-7.779,2.417-11.69L803.584,335.378L803.584,335.378z M808.611,311.984c-0.823,3.922-1.663,7.815-2.502,11.689
			l3.909,0.847c0.84-3.876,1.682-7.777,2.508-11.715L808.611,311.984z M813.236,288.509c-0.681,3.483-1.297,6.748-1.863,9.73
			c-0.13,0.683-0.261,1.364-0.393,2.045l3.927,0.761c0.133-0.686,0.265-1.372,0.396-2.06c0.567-2.985,1.182-6.241,1.859-9.709
			L813.236,288.509z M818.318,264.999c-0.977,4.019-1.865,7.948-2.678,11.732l3.911,0.84c0.807-3.755,1.687-7.65,2.653-11.627
			L818.318,264.999z M824.861,241.796c-1.263,3.848-2.425,7.711-3.5,11.546l3.852,1.079c1.061-3.785,2.207-7.593,3.449-11.378
			L824.861,241.796z M833.706,219.288c-1.712,3.617-3.3,7.342-4.776,11.128l3.727,1.453c1.446-3.709,2.998-7.348,4.665-10.869
			L833.706,219.288z M846.199,198.419c-2.439,3.161-4.707,6.555-6.817,10.124l3.442,2.036c2.038-3.445,4.216-6.702,6.542-9.716
			L846.199,198.419z M864.368,181.941c-3.546,2.056-6.845,4.546-9.916,7.384l2.715,2.938c2.879-2.661,5.942-4.968,9.207-6.86
			L864.368,181.941z M888.116,175.49c-4.325,0.031-8.424,0.604-12.295,1.652l1.046,3.86c3.538-0.958,7.286-1.483,11.278-1.513
			L888.116,175.49z M910.541,185.906c-2.665-3.389-5.961-6.161-9.963-7.981l-1.657,3.641c3.36,1.532,6.137,3.846,8.477,6.815
			L910.541,185.906z M919.899,208.706c-0.829-4.135-1.911-8.125-3.332-11.832l-3.735,1.432c1.321,3.444,2.352,7.224,3.146,11.187
			L919.899,208.706z M922.392,232.833c-0.13-3.958-0.36-8.025-0.754-12.08l-3.981,0.386c0.383,3.949,0.609,7.933,0.737,11.825
			L922.392,232.833z M922.421,256.85c0.02-3.465,0.096-7.535,0.115-11.967l-4-0.019c-0.02,4.398-0.096,8.459-0.115,11.963
			L922.421,256.85z M922.415,280.692c-0.11-2.726-0.147-5.436-0.147-8.062c0-1.291,0.009-2.562,0.022-3.805l-4-0.044
			c-0.014,1.254-0.022,2.539-0.022,3.849c0,2.665,0.037,5.429,0.151,8.226L922.415,280.692z M926.246,303.576
			c-1.283-3.371-2.178-7.18-2.781-11.18l-3.955,0.598c0.636,4.203,1.58,8.276,2.998,12.005L926.246,303.576z M941.495,317.663
			c-3.953-0.705-6.979-2.355-9.45-4.745l-2.786,2.87c2.993,2.916,6.845,4.992,11.54,5.814L941.495,317.663z M961.705,311.148
			c-2.94,2.648-6.033,4.665-9.411,5.806l1.28,3.789c4.037-1.364,7.587-3.722,10.808-6.622L961.705,311.148z M976.484,292.929
			c-2.343,3.279-4.651,6.558-7.016,9.604l3.161,2.452c2.441-3.147,4.776-6.467,7.109-9.731L976.484,292.929z M992.531,274.501
			c-3.19,2.462-6.058,5.479-8.763,8.755l3.085,2.547c2.586-3.135,5.268-5.935,8.121-8.135L992.531,274.501z"/>
		<path fill="#FFFFFF" d="M29.961,232.565c-0.675,2.131-1.187,4.168-1.512,6.087l3.943,0.67c0.288-1.699,0.753-3.564,1.382-5.549
			L29.961,232.565z"/>
		<path fill="#FFFFFF" d="M1011.69,679.478c-2.005,0.221-4.018,0.489-6.036,0.805l0.617,3.951c1.96-0.306,3.912-0.566,5.855-0.779
			L1011.69,679.478L1011.69,679.478z"/>
		<path fill="#FFFFFF" d="M54.026,776.998c-2.05,3.518-3.861,7.174-5.41,10.916l3.696,1.529c1.479-3.574,3.211-7.069,5.17-10.432
			L54.026,776.998z M69.003,757.894c-0.725,0.729-1.445,1.461-2.163,2.195c-2.104,2.151-4.098,4.434-5.973,6.823l3.147,2.469
			c1.787-2.278,3.687-4.451,5.686-6.495c0.71-0.728,1.424-1.451,2.141-2.173L69.003,757.894z M86.437,741.439
			c-2.999,2.646-5.95,5.344-8.854,8.085l2.747,2.908c2.871-2.712,5.789-5.378,8.753-7.993L86.437,741.439z M104.989,726.236
			c-3.188,2.416-6.327,4.896-9.419,7.431l2.536,3.093c3.054-2.504,6.153-4.951,9.299-7.335L104.989,726.236z M124.698,712.537
			c-3.381,2.141-6.714,4.358-10,6.645l2.284,3.283c3.24-2.254,6.525-4.439,9.856-6.549L124.698,712.537z M145.565,700.638
			c-3.572,1.815-7.098,3.719-10.576,5.704l1.982,3.475c3.424-1.955,6.893-3.827,10.405-5.612L145.565,700.638z M167.595,690.948
			c-3.703,1.352-7.427,2.855-11.174,4.517l1.622,3.657c3.666-1.626,7.307-3.096,10.924-4.417L167.595,690.948z M190.795,684.36
			c-3.888,0.79-7.796,1.741-11.728,2.86l1.096,3.847c3.834-1.092,7.643-2.018,11.428-2.787L190.795,684.36z M214.755,681.463
			c-3.992,0.157-8.005,0.477-12.04,0.966l0.48,3.971c3.928-0.476,7.832-0.786,11.718-0.94L214.755,681.463L214.755,681.463z
			 M238.856,682.422c-3.99-0.47-7.999-0.791-12.028-0.953l-0.161,3.997c3.924,0.158,7.83,0.471,11.722,0.929L238.856,682.422z
			 M262.529,686.935c-3.903-1.021-7.82-1.913-11.755-2.667l-0.753,3.929c3.844,0.736,7.675,1.608,11.496,2.607L262.529,686.935z
			 M285.417,694.38c-3.768-1.457-7.545-2.809-11.333-4.045l-1.242,3.802c3.718,1.214,7.428,2.541,11.133,3.974L285.417,694.38z
			 M307.391,704.054c-3.62-1.777-7.244-3.472-10.876-5.075l-1.615,3.659c3.578,1.58,7.153,3.251,10.728,5.007L307.391,704.054z
			 M328.53,715.349c-3.49-2.005-6.98-3.946-10.474-5.816l-1.888,3.526c3.455,1.85,6.91,3.771,10.368,5.759L328.53,715.349z
			 M348.991,727.686c-2.389-1.456-4.807-2.944-7.259-4.458c-0.967-0.598-1.934-1.19-2.901-1.779l-2.08,3.416
			c0.96,0.585,1.919,1.173,2.879,1.766c2.456,1.517,4.881,3.01,7.28,4.472L348.991,727.686z M369.527,739.565
			c-3.408-1.821-6.848-3.758-10.337-5.788l-2.012,3.457c3.521,2.05,7.003,4.01,10.463,5.858L369.527,739.565z M390.926,749.391
			c-3.612-1.337-7.22-2.858-10.844-4.539l-1.683,3.629c3.707,1.72,7.412,3.283,11.139,4.662L390.926,749.391z M413.541,755.095
			c-3.865-0.489-7.673-1.23-11.449-2.196l-0.99,3.876c3.925,1.004,7.896,1.777,11.937,2.289L413.541,755.095z M436.776,754.912
			c-3.966,0.557-7.83,0.838-11.617,0.87l0.034,4c3.962-0.033,8.003-0.328,12.14-0.909L436.776,754.912z M459.39,749.046
			c-3.824,1.422-7.542,2.6-11.166,3.551l1.016,3.869c3.759-0.986,7.603-2.205,11.544-3.67L459.39,749.046z M481.003,739.502
			c-3.543,1.744-7.113,3.426-10.719,5.031l1.627,3.654c3.657-1.628,7.274-3.332,10.858-5.097L481.003,739.502z M501.99,728.415
			c-3.462,1.931-6.936,3.83-10.431,5.683l1.874,3.534c3.524-1.868,7.023-3.781,10.506-5.725L501.99,728.415z M522.644,716.571
			c-3.436,1.998-6.869,3.993-10.309,5.972l1.995,3.467c3.449-1.983,6.888-3.982,10.323-5.98L522.644,716.571z M543.344,704.679
			c-3.475,1.947-6.933,3.922-10.381,5.909l1.997,3.466c3.439-1.982,6.883-3.949,10.339-5.885L543.344,704.679z M564.482,693.445
			c-3.578,1.776-7.125,3.61-10.646,5.489l1.882,3.529c3.492-1.862,7.004-3.68,10.543-5.436L564.482,693.445z M586.383,683.625
			c-3.731,1.478-7.416,3.044-11.061,4.685l1.642,3.647c3.594-1.618,7.222-3.16,10.892-4.613L586.383,683.625z M608.85,675.371
			c-3.771,1.302-7.526,2.658-11.263,4.034l1.383,3.754c3.72-1.37,7.451-2.718,11.186-4.008L608.85,675.371z M631.845,668.443
			c-3.87,0.949-7.736,2.03-11.593,3.205l1.165,3.826c3.799-1.157,7.595-2.218,11.38-3.146L631.845,668.443z M655.697,664.608
			c-4.005,0.249-8.019,0.728-12.034,1.391l0.651,3.947c3.898-0.645,7.778-1.105,11.632-1.346L655.697,664.608z M679.952,666.305
			c-4.005-0.883-8.039-1.435-12.091-1.701l-0.263,3.991c3.865,0.255,7.697,0.779,11.492,1.616L679.952,666.305z M702.589,675.359
			c-3.604-2.171-7.255-3.978-10.943-5.455l-1.487,3.713c3.489,1.398,6.945,3.108,10.366,5.169L702.589,675.359z M721.363,690.915
			c-1.625-1.902-3.379-3.722-5.273-5.441c-1.176-1.067-2.358-2.088-3.548-3.063l-2.537,3.092c1.137,0.933,2.27,1.91,3.397,2.935
			c1.764,1.601,3.399,3.297,4.92,5.077L721.363,690.915z M733.746,711.91c-1.53-3.771-3.284-7.448-5.326-10.967l-3.46,2.007
			c1.934,3.333,3.609,6.841,5.079,10.464L733.746,711.91z M740.685,735.039c-0.871-3.884-1.847-7.796-2.985-11.675l-3.838,1.127
			c1.107,3.774,2.063,7.603,2.92,11.424L740.685,735.039z M744.95,758.64c-0.611-3.995-1.232-7.947-1.913-11.817l-3.939,0.692
			c0.672,3.822,1.289,7.746,1.898,11.73L744.95,758.64z M748.746,782.127c-0.727-3.882-1.376-7.796-1.992-11.706l-3.951,0.623
			c0.619,3.932,1.275,7.883,2.012,11.819L748.746,782.127z M754.435,804.972c-1.227-3.667-2.288-7.443-3.228-11.291l-3.886,0.947
			c0.961,3.938,2.051,7.82,3.32,11.612L754.435,804.972z M764.479,825.895c-2.164-3.176-4.056-6.547-5.725-10.076l-3.616,1.709
			c1.747,3.696,3.74,7.252,6.035,10.619L764.479,825.895z M780.703,842.049c-3.297-2.192-6.244-4.626-8.893-7.272l-2.827,2.83
			c2.831,2.828,5.986,5.434,9.505,7.773L780.703,842.049z M801.548,847.896c-1.313,0.254-2.644,0.386-3.998,0.386
			c-2.184,0-4.433-0.341-6.778-1.08l-1.203,3.814c2.711,0.856,5.38,1.266,7.981,1.266c1.614,0,3.202-0.157,4.758-0.458
			L801.548,847.896z M820.155,835.882c-2.77,3.018-5.624,5.596-8.549,7.597l2.259,3.301c3.243-2.22,6.31-5.004,9.236-8.192
			L820.155,835.882z M833.867,816.884c-2.082,3.446-4.225,6.77-6.429,9.877l3.263,2.314c2.274-3.208,4.468-6.611,6.59-10.123
			L833.867,816.884z M845.345,796.095c-1.814,3.482-3.676,7.011-5.588,10.505l3.509,1.921c1.932-3.53,3.805-7.083,5.626-10.576
			L845.345,796.095z M856.567,774.937c-1.863,3.281-3.764,6.839-5.714,10.562l3.544,1.855c1.939-3.705,3.82-7.226,5.648-10.442
			L856.567,774.937z M871.312,755.616c-1.519,1.485-3.004,2.972-4.455,4.455c-1.28,1.31-2.54,2.846-3.804,4.576l3.23,2.358
			c1.18-1.617,2.33-3.011,3.433-4.138c1.431-1.463,2.896-2.928,4.394-4.394L871.312,755.616z M889.092,739.503
			c-3.101,2.608-6.117,5.241-9.039,7.888l2.685,2.965c2.886-2.613,5.866-5.215,8.93-7.791L889.092,739.503L889.092,739.503z
			 M907.991,724.73c-3.258,2.363-6.454,4.773-9.581,7.218l2.463,3.151c3.091-2.415,6.249-4.797,9.467-7.131L907.991,724.73z
			 M927.928,711.36c-3.409,2.104-6.776,4.273-10.093,6.499l2.229,3.321c3.275-2.198,6.6-4.34,9.965-6.416L927.928,711.36z
			 M948.863,699.609c-3.56,1.8-7.094,3.688-10.593,5.655l1.96,3.487c3.45-1.939,6.932-3.801,10.438-5.572L948.863,699.609z
			 M970.82,689.835c-3.716,1.425-7.423,2.965-11.11,4.611l1.63,3.652c3.626-1.618,7.266-3.131,10.912-4.528L970.82,689.835z
			 M993.808,682.635c-3.867,0.928-7.743,2.009-11.618,3.229l1.201,3.815c3.791-1.193,7.578-2.249,11.351-3.154L993.808,682.635
			L993.808,682.635z"/>
		<path fill="#FFFFFF" d="M44.728,799.603c-0.506,1.999-0.935,4.008-1.281,6.018l3.942,0.68c0.328-1.906,0.735-3.813,1.217-5.715
			L44.728,799.603z"/>
		<path fill="#FFFFFF" d="M764.724,1084.317c-0.567-1.916-1.135-3.832-1.697-5.749l-3.838,1.127
			c0.564,1.923,1.132,3.842,1.701,5.759L764.724,1084.317z"/>
		<path fill="#00A1E4" d="M745.386,29.294c1.224-3.738,2.551-7.449,3.986-11.132l-3.727-1.453
			c-1.464,3.753-2.815,7.534-4.062,11.341L745.386,29.294z M739.23,52.136c0.83-3.856,1.755-7.692,2.781-11.504l-3.863-1.039
			c-1.043,3.879-1.984,7.78-2.828,11.701L739.23,52.136z M735.356,75.498c0.469-3.925,1.021-7.836,1.665-11.729l-3.946-0.652
			c-0.653,3.955-1.216,7.925-1.69,11.908L735.356,75.498z M733.537,99.136c0.146-3.955,0.368-7.903,0.669-11.84l-3.988-0.306
			c-0.306,3.991-0.529,7.991-0.678,11.998L733.537,99.136z M733.519,122.868c-0.132-3.921-0.199-7.84-0.199-11.754v-0.115l-4-0.001
			v0.116c0,3.961,0.068,7.925,0.202,11.888L733.519,122.868z M735.05,146.573c-0.371-3.944-0.688-7.893-0.944-11.844l-3.991,0.26
			c0.259,3.99,0.578,7.978,0.953,11.958L735.05,146.573z M737.896,170.175c-0.571-3.918-1.098-7.848-1.573-11.785l-3.972,0.48
			c0.48,3.972,1.011,7.933,1.587,11.882L737.896,170.175z M741.846,193.635c-0.738-3.887-1.439-7.791-2.101-11.711l-3.944,0.666
			c0.666,3.947,1.372,7.878,2.114,11.79L741.846,193.635z M746.278,217.126c-0.677-3.89-1.395-7.812-2.151-11.775l-3.929,0.75
			c0.753,3.944,1.467,7.845,2.139,11.711L746.278,217.126z M749.906,240.807c-0.515-3.934-1.078-7.885-1.689-11.862l-3.954,0.608
			c0.607,3.949,1.167,7.87,1.677,11.772L749.906,240.807z M752.403,264.653c-0.308-3.979-0.672-7.956-1.091-11.942l-3.979,0.419
			c0.415,3.95,0.776,7.891,1.081,11.832L752.403,264.653z M753.542,288.617c-0.069-4.015-0.199-8.009-0.39-11.991l-3.995,0.19
			c0.188,3.942,0.317,7.896,0.385,11.869L753.542,288.617z M753.209,312.613c0.18-4.034,0.297-8.029,0.352-11.995l-3.999-0.056
			c-0.055,3.925-0.171,7.879-0.349,11.872L753.209,312.613z M751.4,336.557c0.185-1.616,0.351-3.231,0.499-4.846
			c0.22-2.391,0.418-4.763,0.594-7.12l-3.989-0.298c-0.174,2.334-0.37,4.685-0.587,7.052c-0.146,1.585-0.31,3.171-0.491,4.759
			L751.4,336.557z M747.442,360.303c0.858-3.936,1.62-7.877,2.279-11.82l-3.945-0.659c-0.648,3.876-1.396,7.754-2.242,11.627
			L747.442,360.303z M741.225,383.544c1.214-3.835,2.34-7.686,3.374-11.548l-3.863-1.034c-1.019,3.803-2.128,7.597-3.324,11.375
			L741.225,383.544z M732.995,406.138c1.53-3.713,2.982-7.45,4.353-11.209l-3.758-1.37c-1.351,3.706-2.783,7.393-4.293,11.054
			L732.995,406.138z M722.941,427.97c1.82-3.571,3.569-7.178,5.245-10.814l-3.633-1.674c-1.653,3.589-3.38,7.147-5.176,10.672
			L722.941,427.97z M711.2,448.937c2.09-3.412,4.116-6.87,6.075-10.368l-3.49-1.954c-1.934,3.452-3.934,6.865-5.996,10.233
			L711.2,448.937z M697.861,468.923c2.348-3.233,4.637-6.522,6.865-9.862l-3.327-2.221c-2.199,3.297-4.459,6.543-6.774,9.733
			L697.861,468.923z M682.975,487.789c2.598-3.028,5.145-6.125,7.636-9.283l-3.141-2.477c-2.458,3.115-4.97,6.169-7.531,9.155
			L682.975,487.789z M666.552,505.354c2.848-2.789,5.65-5.659,8.403-8.605l-2.923-2.73c-2.713,2.903-5.474,5.731-8.279,8.479
			L666.552,505.354z M646.551,519.336c3.688-1.646,7.245-3.468,10.768-5.938l-2.297-3.274c-3.242,2.273-6.538,3.97-10.102,5.561
			L646.551,519.336z M624.139,528.254c3.366-0.999,6.598-2.171,9.654-3.519c0.584-0.258,1.161-0.509,1.732-0.754l-1.576-3.676
			c-0.583,0.25-1.173,0.506-1.771,0.77c-2.886,1.273-5.959,2.389-9.177,3.344L624.139,528.254z M600.21,532.368
			c4.095-0.264,8.133-0.727,12.063-1.39l-0.666-3.944c-3.788,0.64-7.69,1.087-11.654,1.342L600.21,532.368z M576.002,531.652
			c4.005,0.493,8.05,0.8,12.086,0.921l0.119-3.999c-3.914-0.116-7.836-0.414-11.717-0.892L576.002,531.652z M552.347,526.302
			c3.775,1.297,7.692,2.393,11.7,3.29l0.874-3.903c-3.872-0.866-7.647-1.924-11.274-3.17L552.347,526.302z M530.598,515.199
			c0.655,0.498,1.327,0.981,2.015,1.45c2.654,1.808,5.492,3.458,8.478,4.954l1.792-3.576c-2.84-1.423-5.523-2.985-8.018-4.685
			c-0.631-0.429-1.246-0.872-1.846-1.328L530.598,515.199z M515.419,495.824c1.682,3.77,3.796,7.349,6.354,10.636l3.157-2.457
			c-2.35-3.019-4.3-6.317-5.858-9.81L515.419,495.824z M510.396,471.81c0.017,4.117,0.433,8.231,1.261,12.253l3.918-0.807
			c-0.772-3.753-1.163-7.604-1.179-11.462L510.396,471.81z M515.064,447.748c-1.568,3.784-2.746,7.751-3.526,11.808l3.929,0.756
			c0.73-3.799,1.832-7.508,3.293-11.032L515.064,447.748z M529.049,427.612c-2.972,2.838-5.676,5.938-8.041,9.316l3.276,2.294
			c2.203-3.146,4.731-6.047,7.527-8.717L529.049,427.612z M549.155,413.806c-3.666,1.818-7.203,3.857-10.552,6.131l2.247,3.31
			c3.185-2.162,6.564-4.112,10.082-5.857L549.155,413.806z M571.948,405.49c-3.896,0.991-7.783,2.171-11.603,3.553l1.361,3.762
			c3.688-1.335,7.45-2.478,11.228-3.438L571.948,405.49z M595.885,401.664c-0.66,0.036-1.319,0.083-1.977,0.139
			c-3.301,0.278-6.678,0.688-10.092,1.235l0.634,3.95c3.314-0.532,6.594-0.93,9.795-1.2c0.619-0.053,1.239-0.096,1.86-0.13
			L595.885,401.664z M620.126,403.964c-4.012-0.898-8.021-1.576-12.008-1.981l-0.403,3.979c3.808,0.387,7.66,1.037,11.536,1.905
			L620.126,403.964z M643.175,411.235c-3.765-1.483-7.558-2.855-11.364-4.073l-1.218,3.811c3.709,1.187,7.421,2.528,11.115,3.984
			L643.175,411.235z M665.121,421.049c-3.565-1.746-7.191-3.467-10.861-5.119l-1.642,3.647c3.621,1.63,7.208,3.332,10.742,5.063
			L665.121,421.049z M686.44,431.917c-3.438-1.776-6.983-3.622-10.616-5.485l-1.826,3.559c3.619,1.857,7.161,3.7,10.605,5.48
			L686.44,431.917z M707.532,443.409c-3.432-2.102-6.921-4.102-10.455-5.997l-1.891,3.524c3.468,1.86,6.891,3.822,10.257,5.884
			L707.532,443.409z M727.301,457.206c-3.149-2.5-6.379-4.9-9.677-7.199l-2.288,3.281c3.231,2.253,6.395,4.604,9.479,7.051
			L727.301,457.206z M745.168,473.421c-2.788-2.902-5.68-5.706-8.663-8.41l-2.687,2.964c2.917,2.644,5.743,5.384,8.465,8.217
			L745.168,473.421z M760.567,492.03c-2.326-3.296-4.78-6.496-7.352-9.599l-3.08,2.553c2.507,3.024,4.898,6.143,7.163,9.353
			L760.567,492.03z M772.798,512.931c-0.919-2.012-1.909-4.012-2.982-5.999c-0.864-1.6-1.757-3.181-2.679-4.742l-3.444,2.032
			c0.896,1.519,1.764,3.056,2.604,4.61c1.028,1.905,1.979,3.825,2.863,5.761L772.798,512.931z M780.625,535.829
			c-0.996-3.898-2.103-7.767-3.39-11.598l-3.792,1.273c1.249,3.718,2.329,7.489,3.306,11.313L780.625,535.829z M785.606,559.373
			c-0.313-2.041-0.67-4.08-1.087-6.114c-0.392-1.913-0.786-3.819-1.19-5.72l-3.912,0.832c0.401,1.886,0.793,3.782,1.185,5.69
			c0.401,1.959,0.746,3.933,1.052,5.919L785.606,559.373z M788.265,583.185c-0.435-3.925-0.794-7.885-1.197-11.86l-3.979,0.403
			c0.4,3.947,0.761,7.92,1.201,11.897L788.265,583.185z M792.703,606.218c-0.063-0.205-0.127-0.409-0.19-0.614
			c-1.101-3.52-1.936-7.104-2.6-10.739l-3.935,0.718c0.687,3.761,1.557,7.507,2.716,11.215c0.062,0.2,0.125,0.4,0.187,0.6
			L792.703,606.218L792.703,606.218z M798.192,629.701c-0.675-3.953-1.448-7.889-2.357-11.818l-3.897,0.901
			c0.89,3.844,1.648,7.702,2.312,11.59L798.192,629.701z M801.321,653.5c-0.419-4.009-0.864-7.975-1.369-11.908l-3.968,0.509
			c0.5,3.893,0.941,7.826,1.358,11.814L801.321,653.5z M802.332,677.625c0.089-2.062,0.135-4.122,0.135-6.178
			c0-1.981-0.043-3.96-0.131-5.932l-3.996,0.177c0.085,1.912,0.127,3.83,0.127,5.755c0,1.996-0.045,3.999-0.132,6.006
			L802.332,677.625z M799.502,701.604c0.743-3.96,1.362-7.941,1.84-11.93l-3.972-0.476c-0.467,3.895-1.072,7.789-1.8,11.668
			L799.502,701.604z M793.721,724.987c1.162-3.824,2.237-7.697,3.209-11.605l-3.883-0.965c-0.953,3.837-2.011,7.645-3.153,11.407
			L793.721,724.987z M785.646,747.67c0.515-1.211,1.011-2.431,1.488-3.662c0.968-2.499,1.91-5.033,2.82-7.597l-3.77-1.338
			c-0.896,2.526-1.825,5.024-2.781,7.489c-0.461,1.189-0.941,2.37-1.439,3.545L785.646,747.67z M774.695,769.138
			c1.988-3.473,3.936-6.978,5.779-10.543l-3.553-1.838c-1.808,3.495-3.727,6.95-5.697,10.394L774.695,769.138z M762.752,789.784
			c1.919-3.454,3.912-6.883,5.922-10.314l-3.451-2.021c-2.015,3.438-4.023,6.894-5.968,10.393L762.752,789.784z M752.447,811.056
			c1.09-2.619,2.229-5.228,3.42-7.823c0.457-0.995,0.925-1.984,1.402-2.971l-3.6-1.745c-0.489,1.01-0.969,2.025-1.438,3.048
			c-1.211,2.64-2.37,5.291-3.479,7.955L752.447,811.056z M744.448,833.325c1.147-3.766,2.388-7.511,3.725-11.234l-3.765-1.352
			c-1.358,3.785-2.62,7.593-3.786,11.421L744.448,833.325L744.448,833.325z M738.648,856.278c0.785-3.869,1.659-7.719,2.627-11.547
			l-3.879-0.979c-0.982,3.891-1.871,7.802-2.668,11.73L738.648,856.278z M734.998,879.685c0.436-3.933,0.955-7.849,1.562-11.746
			l-3.953-0.615c-0.615,3.957-1.144,7.931-1.585,11.921L734.998,879.685z M733.381,903.338c0.108-3.964,0.296-7.913,0.563-11.846
			l-3.991-0.271c-0.271,3.987-0.461,7.99-0.571,12.007L733.381,903.338z M733.604,927.069c-0.17-3.952-0.278-7.909-0.32-11.869
			l-3.999,0.043c0.042,4.004,0.151,8.004,0.323,11.998L733.604,927.069z M735.341,950.76c-0.403-3.94-0.752-7.886-1.043-11.835
			l-3.989,0.294c0.294,3.988,0.646,7.971,1.053,11.948L735.341,950.76z M738.378,974.338c-0.604-3.919-1.162-7.843-1.669-11.772
			l-3.968,0.513c0.512,3.963,1.074,7.919,1.683,11.869L738.378,974.338z M742.521,997.765c-0.772-3.893-1.506-7.79-2.198-11.693
			l-3.938,0.698c0.697,3.932,1.436,7.856,2.214,11.773L742.521,997.765z M747.58,1021.028c-0.908-3.864-1.787-7.735-2.632-11.611
			l-3.908,0.851c0.85,3.899,1.732,7.792,2.646,11.677L747.58,1021.028z M753.368,1044.137c-1.016-3.839-2.008-7.685-2.974-11.536
			l-3.88,0.973c0.97,3.87,1.967,7.732,2.986,11.586L753.368,1044.137L753.368,1044.137z M759.705,1067.115
			c-1.092-3.817-2.168-7.643-3.227-11.476l-3.855,1.065c1.062,3.845,2.142,7.682,3.236,11.51L759.705,1067.115z"/>
		<path fill="#FFFFFF" d="M754.043,7.137c0.824-1.796,1.677-3.584,2.557-5.364L753.014,0c-0.897,1.814-1.766,3.638-2.606,5.469
			L754.043,7.137L754.043,7.137z"/>
		<path fill="#FFFFFF" d="M259.932,993.788c1.294-1.521,2.593-3.037,3.896-4.549l-3.03-2.611c-1.309,1.52-2.612,3.041-3.911,4.566
			L259.932,993.788z"/>
		<path fill="#FFFFFF" d="M419.76,60.603c3.515-1.559,7.259-2.983,11.001-4.528l-1.527-3.697c-3.672,1.518-7.445,2.951-11.096,4.569
			L419.76,60.603z M398.644,71.412c3.491-1.924,6.992-3.789,10.497-5.593l-1.83-3.557c-3.539,1.821-7.073,3.704-10.598,5.646
			L398.644,71.412L398.644,71.412z M378.134,83.469c3.377-2.111,6.769-4.168,10.173-6.17l-2.027-3.447l0,0
			c-3.436,2.02-6.858,4.095-10.266,6.226L378.134,83.469z M358.305,96.618c3.256-2.286,6.532-4.522,9.827-6.707l-2.211-3.334
			c-3.324,2.205-6.63,4.461-9.915,6.768L358.305,96.618z M339.184,110.816c3.132-2.457,6.292-4.868,9.475-7.232l-2.384-3.211
			c-3.212,2.385-6.399,4.817-9.561,7.296L339.184,110.816z M320.838,126.015c2.991-2.616,6.016-5.19,9.069-7.72l-2.552-3.08
			c-3.081,2.552-6.133,5.149-9.151,7.789L320.838,126.015z M303.356,142.169c2.839-2.771,5.716-5.504,8.628-8.195l-2.714-2.938
			c-2.939,2.716-5.844,5.473-8.708,8.271L303.356,142.169z M286.818,159.259c2.672-2.925,5.388-5.812,8.146-8.661l-2.874-2.782
			c-2.784,2.877-5.526,5.792-8.225,8.745L286.818,159.259z M271.322,177.27c2.487-3.075,5.025-6.115,7.611-9.12l-3.032-2.609
			c-2.612,3.035-5.176,6.107-7.689,9.214L271.322,177.27z M256.982,196.189c2.282-3.223,4.622-6.414,7.017-9.572l-3.188-2.417
			c-2.42,3.192-4.785,6.419-7.094,9.678L256.982,196.189z M243.939,216.003c2.054-3.369,4.171-6.708,6.35-10.017l-3.34-2.2
			c-2.205,3.347-4.348,6.726-6.425,10.135L243.939,216.003z M232.356,236.684c1.796-3.51,3.662-6.992,5.599-10.446l-3.489-1.956
			c-1.961,3.497-3.852,7.024-5.67,10.58L232.356,236.684z M222.419,258.187c1.505-3.642,3.09-7.26,4.751-10.851l-3.631-1.68
			c-1.684,3.641-3.29,7.309-4.817,11.002L222.419,258.187z M214.33,280.44c1.181-3.761,2.448-7.499,3.8-11.215l-3.759-1.367
			c-1.372,3.771-2.659,7.565-3.857,11.385L214.33,280.44z M208.304,303.336c0.82-3.859,1.735-7.699,2.742-11.519l-3.868-1.02
			c-1.022,3.881-1.953,7.783-2.787,11.706L208.304,303.336z M204.534,326.715c0.426-3.872,0.956-7.784,1.594-11.737l-3.949-0.637
			c-0.647,4.019-1.188,7.997-1.62,11.938L204.534,326.715z M203.211,350.343c0.003-3.903,0.115-7.846,0.341-11.829l-3.994-0.226
			c-0.229,4.057-0.344,8.073-0.347,12.052L203.211,350.343z M204.551,373.95c-0.449-3.891-0.788-7.817-1.012-11.783l-3.994,0.227
			c0.229,4.043,0.574,8.048,1.032,12.016L204.551,373.95z M208.635,397.231c-0.904-3.826-1.699-7.685-2.383-11.578l-3.939,0.691
			c0.697,3.971,1.508,7.905,2.43,11.807L208.635,397.231z M215.363,419.907c-1.331-3.721-2.56-7.47-3.682-11.247l-3.835,1.139
			c1.144,3.85,2.395,7.667,3.75,11.456L215.363,419.907z M224.479,441.771c-1.707-3.585-3.319-7.191-4.835-10.82l-3.691,1.541
			c1.541,3.691,3.181,7.356,4.915,10.999L224.479,441.771z M235.63,462.71c-2.021-3.434-3.957-6.884-5.807-10.352l-3.529,1.882
			c1.877,3.52,3.841,7.018,5.889,10.499L235.63,462.71z M248.434,482.704c-2.271-3.282-4.467-6.576-6.587-9.883l-3.367,2.159
			c2.146,3.347,4.368,6.68,6.664,9.999L248.434,482.704z M262.578,501.76c-1.308-1.602-2.577-3.212-3.809-4.829
			c-1.155-1.519-2.296-3.039-3.421-4.562l-3.217,2.378c1.137,1.537,2.288,3.072,3.455,4.605c1.259,1.654,2.557,3.301,3.893,4.937
			L262.578,501.76z M278.625,519.13c-2.87-2.761-5.636-5.58-8.286-8.446l-2.937,2.716c2.703,2.924,5.523,5.8,8.45,8.613
			L278.625,519.13z M296.59,534.527c-3.149-2.402-6.221-4.887-9.202-7.442l-2.603,3.037c3.038,2.604,6.168,5.138,9.38,7.586
			L296.59,534.527z M316.211,547.742c-3.396-2.001-6.733-4.11-10.003-6.314l-2.236,3.317c3.335,2.248,6.741,4.399,10.209,6.443
			L316.211,547.742z M337.289,558.389c-3.613-1.526-7.187-3.188-10.71-4.972l-1.806,3.569c3.603,1.823,7.258,3.523,10.958,5.087
			L337.289,558.389z M359.611,565.9c-3.79-0.946-7.56-2.058-11.299-3.32l-1.28,3.79c3.838,1.296,7.711,2.438,11.61,3.411
			L359.611,565.9z M382.807,569.515c-3.895-0.229-7.789-0.656-11.673-1.267l-0.621,3.951c4.007,0.63,8.03,1.071,12.06,1.308
			L382.807,569.515z M406.189,568.4c-3.869,0.619-7.758,1.013-11.655,1.194l0.186,3.995c4.043-0.188,8.081-0.596,12.103-1.239
			L406.189,568.4z M428.657,562.037c-0.219,0.094-0.437,0.185-0.654,0.273c-3.432,1.397-6.895,2.583-10.38,3.569l1.089,3.849
			c3.627-1.025,7.229-2.26,10.799-3.713c0.24-0.098,0.479-0.198,0.72-0.301L428.657,562.037z M447.537,548.838
			c-2.835,2.788-5.846,5.317-8.895,7.485l2.318,3.26c3.232-2.299,6.399-4.961,9.381-7.894L447.537,548.838z M461.198,530.202
			c-1.624,3.375-3.671,6.698-6.017,9.864l3.214,2.381c2.479-3.348,4.658-6.878,6.407-10.51L461.198,530.202z M464.681,508.362
			c0.426,1.844,0.629,3.736,0.629,5.666c0,1.771-0.171,3.571-0.499,5.39l3.938,0.709c0.365-2.033,0.562-4.071,0.562-6.099
			c0-2.21-0.233-4.408-0.731-6.566L464.681,508.362z M451.222,491.372c3.646,2.208,6.462,4.641,8.585,7.218l3.087-2.543
			c-2.443-2.967-5.622-5.688-9.6-8.097L451.222,491.372z M429.582,484.311c3.773,0.312,7.517,1.043,11.227,2.259l1.246-3.801
			c-4.017-1.317-8.074-2.108-12.143-2.444L429.582,484.311z M406.712,486.974c3.797-1.105,7.59-1.921,11.362-2.388l-0.49-3.97
			c-4.013,0.496-8.014,1.359-11.99,2.517L406.712,486.974z M385.074,496.022c3.52-1.862,7.065-3.574,10.624-5.085l-1.563-3.682
			c-3.679,1.562-7.326,3.324-10.931,5.231L385.074,496.022z M364.799,508.289c3.287-2.192,6.625-4.343,10.002-6.4l-2.082-3.415
			c-3.434,2.092-6.817,4.271-10.14,6.488L364.799,508.289z M345.245,521.934c3.17-2.255,6.422-4.577,9.743-6.909l-2.299-3.273
			c-3.338,2.344-6.597,4.671-9.763,6.923L345.245,521.934z M325.373,535.411c0.574-0.364,1.148-0.727,1.721-1.085
			c2.688-1.681,5.47-3.532,8.34-5.502l-2.264-3.298c-2.84,1.949-5.577,3.77-8.197,5.409c-0.581,0.363-1.163,0.73-1.745,1.101
			L325.373,535.411z M305.849,548.923c3.208-2.403,6.425-4.72,9.636-6.943l-2.277-3.288c-3.252,2.252-6.509,4.598-9.756,7.029
			L305.849,548.923z M287.351,563.828c3.011-2.606,6.055-5.147,9.117-7.616l-2.51-3.114c-3.1,2.497-6.179,5.068-9.226,7.707
			L287.351,563.828z M269.954,580.017c2.799-2.804,5.652-5.556,8.549-8.249l-2.724-2.929c-2.932,2.727-5.821,5.513-8.656,8.352
			L269.954,580.017z M253.855,597.453c2.549-2.999,5.177-5.96,7.871-8.876l-2.938-2.715c-2.73,2.955-5.396,5.957-7.981,9.001
			L253.855,597.453z M239.36,616.196c2.238-3.209,4.583-6.393,7.022-9.543l-3.162-2.449c-2.479,3.2-4.863,6.438-7.142,9.705
			L239.36,616.196z M226.991,636.344c1.817-3.434,3.78-6.854,5.874-10.254l-3.406-2.098c-2.137,3.47-4.143,6.966-6.003,10.479
			L226.991,636.344z M218.082,658.05c1.16-3.889,2.462-7.605,3.883-11.092l-3.703-1.51c-1.475,3.615-2.817,7.452-4.013,11.457
			L218.082,658.05z M213.218,681.096c0.514-3.942,1.177-7.833,1.974-11.625l-3.914-0.823c-0.818,3.895-1.499,7.886-2.026,11.932
			L213.218,681.096z M212.031,704.616c-0.048-1.479-0.072-2.961-0.072-4.446c0-2.44,0.064-4.888,0.19-7.332l-3.995-0.205
			c-0.129,2.511-0.195,5.026-0.195,7.537c0,1.528,0.024,3.055,0.074,4.577L212.031,704.616z M215.088,727.854
			c-0.916-3.73-1.621-7.586-2.127-11.521l-3.968,0.511c0.524,4.073,1.255,8.076,2.211,11.965L215.088,727.854z M223.812,749.319
			c-1.997-3.219-3.722-6.688-5.188-10.355l-3.715,1.485c1.545,3.863,3.371,7.542,5.504,10.979L223.812,749.319z M239.669,765.778
			c-3.087-2.06-6.03-4.491-8.812-7.372l-2.878,2.779c2.981,3.086,6.15,5.706,9.47,7.92L239.669,765.778z M260.961,774.481
			c-3.821-0.834-7.53-1.929-11.1-3.361l-1.489,3.712c3.804,1.527,7.729,2.683,11.736,3.558L260.961,774.481z M284.322,776.951
			c-3.981-0.106-7.921-0.313-11.787-0.694l-0.392,3.981c3.988,0.392,8.022,0.604,12.071,0.712L284.322,776.951z M308.162,776.963
			c-3.977,0.007-7.972,0.057-11.955,0.078l0.021,4c4.003-0.021,7.993-0.071,11.94-0.078L308.162,776.963z M331.973,776.286
			c-4.021,0.162-8.005,0.335-11.928,0.466l0.133,3.998c3.951-0.132,7.943-0.306,11.955-0.467L331.973,776.286z M355.993,775.897
			c-1.912-0.049-3.827-0.069-5.742-0.069c-2.1,0-4.2,0.025-6.297,0.068l0.083,3.999c2.073-0.043,4.146-0.067,6.214-0.067
			c1.886,0,3.767,0.021,5.642,0.067L355.993,775.897z M380.084,778.437c-3.955-0.826-7.97-1.412-12.019-1.816l-0.397,3.98
			c3.93,0.393,7.803,0.959,11.598,1.752L380.084,778.437z M402.975,787.279c-2.315-1.618-4.849-3.021-7.595-4.169
			c-1.169-0.488-2.347-0.945-3.533-1.374l-1.357,3.763c1.126,0.406,2.241,0.84,3.348,1.303c2.484,1.038,4.764,2.301,6.847,3.756
			L402.975,787.279z M418.078,806.822c-1.538-3.886-3.562-7.554-6.088-10.866l-3.181,2.425c2.287,3,4.136,6.343,5.549,9.914
			L418.078,806.822z M421.666,831.148c0.094-1.367,0.141-2.736,0.141-4.104c0-2.764-0.192-5.521-0.581-8.237l-3.96,0.567
			c0.361,2.524,0.541,5.093,0.541,7.67c0,1.276-0.044,2.554-0.132,3.83L421.666,831.148L421.666,831.148z M414.896,854.769
			c1.973-3.61,3.527-7.469,4.658-11.46l-3.849-1.091c-1.053,3.717-2.498,7.299-4.319,10.633L414.896,854.769z M398.19,872.731
			c1.575-1.146,3.131-2.32,4.662-3.525c1.703-1.34,3.293-2.801,4.77-4.364l-2.908-2.746c-1.347,1.425-2.792,2.752-4.335,3.968
			c-1.488,1.171-3.004,2.313-4.543,3.434L398.19,872.731z M378.103,885.937c3.396-2.105,6.789-4.223,10.14-6.399l-2.179-3.354
			c-3.311,2.15-6.68,4.253-10.069,6.355L378.103,885.937z M358.072,898.777c3.24-2.243,6.556-4.404,9.908-6.529l-2.142-3.379
			c-3.381,2.144-6.742,4.334-10.044,6.62L358.072,898.777z M339.378,913.349c3.04-2.547,6.109-5.058,9.212-7.529l-2.492-3.129
			c-3.129,2.493-6.225,5.024-9.289,7.593L339.378,913.349z M321.494,929.057c2.923-2.685,5.873-5.338,8.854-7.956l-2.641-3.005
			c-3.003,2.639-5.976,5.312-8.919,8.016L321.494,929.057z M304.289,945.522c2.814-2.801,5.654-5.575,8.521-8.32l-2.766-2.889
			c-2.887,2.763-5.744,5.555-8.577,8.374L304.289,945.522z M287.702,962.626c2.717-2.897,5.456-5.773,8.22-8.624l-2.872-2.784
			c-2.779,2.867-5.534,5.76-8.266,8.673L287.702,962.626z M271.662,980.259c2.632-2.977,5.283-5.936,7.956-8.876l-2.959-2.69
			c-2.687,2.954-5.351,5.928-7.994,8.918L271.662,980.259z"/>
		<path fill="#FFFFFF" d="M442.006,50.639c1.794-1.074,3.525-2.258,5.159-3.592l-2.53-3.098c-1.458,1.19-3.027,2.266-4.684,3.258
			L442.006,50.639z"/>
		<path fill="#FFFFFF" d="M52.155,601.298c-2.234,3.333-4.438,6.685-6.613,10.054l3.36,2.17c2.164-3.351,4.354-6.684,6.576-9.996
			L52.155,601.298z M65.95,581.562c-2.367,3.242-4.699,6.51-6.998,9.801l3.279,2.29c2.283-3.269,4.599-6.514,6.949-9.731
			L65.95,581.562z M80.611,562.442c-2.522,3.126-5.004,6.285-7.446,9.473l3.175,2.434c2.423-3.163,4.884-6.295,7.385-9.395
			L80.611,562.442z M95.741,543.804c-2.54,3.145-5.055,6.259-7.546,9.329l3.105,2.521c2.496-3.075,5.012-6.191,7.552-9.336
			L95.741,543.804z M110.905,525.165c-2.564,3.11-5.1,6.215-7.609,9.304l3.105,2.522c2.504-3.084,5.033-6.182,7.59-9.281
			L110.905,525.165z M126.446,506.795c-2.645,3.03-5.257,6.078-7.838,9.134l3.056,2.582c2.569-3.042,5.167-6.074,7.796-9.085
			L126.446,506.795z M142.677,488.986c-2.777,2.9-5.517,5.843-8.221,8.814l2.959,2.692c2.684-2.949,5.399-5.867,8.151-8.741
			L142.677,488.986z M159.9,472.083c-2.961,2.71-5.878,5.485-8.755,8.313l2.805,2.853c2.845-2.798,5.728-5.54,8.65-8.215
			L159.9,472.083z M178.412,456.541c-3.193,2.435-6.338,4.962-9.435,7.567l2.575,3.061c3.051-2.567,6.146-5.054,9.285-7.447
			L178.412,456.541z M198.468,442.968c-3.468,2.049-6.877,4.218-10.232,6.495l2.246,3.31c3.29-2.232,6.63-4.357,10.021-6.361
			L198.468,442.968z M220.186,432.148c-3.751,1.524-7.438,3.199-11.064,5.011l1.788,3.578c3.537-1.768,7.13-3.399,10.782-4.883
			L220.186,432.148z M243.147,424.377c-3.816,1-7.688,2.179-11.62,3.521l1.293,3.785c3.848-1.314,7.629-2.464,11.342-3.438
			L243.147,424.377z M267.216,420.517c-3.985,0.181-8.038,0.621-12.159,1.3l0.65,3.947c3.979-0.656,7.876-1.078,11.69-1.251
			L267.216,420.517z M291.598,423.036c-3.955-1.075-7.993-1.807-12.109-2.216l-0.396,3.98c3.906,0.389,7.724,1.08,11.457,2.096
			L291.598,423.036z M313.831,433.447c-3.473-2.396-7.027-4.442-10.663-6.152l-1.702,3.619c3.432,1.615,6.795,3.549,10.093,5.825
			L313.831,433.447z M331.849,449.962c-2.758-3.224-5.576-6.162-8.456-8.825l-2.716,2.937c2.758,2.551,5.469,5.376,8.133,8.489
			L331.849,449.962z M345.701,470.003c-1.965-3.567-4.093-7.036-6.401-10.381l-3.292,2.272c2.227,3.227,4.285,6.58,6.189,10.038
			L345.701,470.003L345.701,470.003z M355.583,492.2c-1.364-3.819-2.855-7.589-4.491-11.285l-3.658,1.618
			c1.593,3.6,3.049,7.277,4.382,11.012L355.583,492.2z M362.333,515.459c-0.911-3.917-1.92-7.83-3.041-11.716l-3.843,1.108
			c1.1,3.812,2.091,7.658,2.988,11.514L362.333,515.459z M366.815,539.224c-0.056-0.412-0.115-0.825-0.179-1.238
			c-0.548-3.538-1.152-7.109-1.826-10.697l-3.931,0.737c0.664,3.542,1.262,7.071,1.804,10.571c0.06,0.388,0.116,0.775,0.168,1.163
			L366.815,539.224z M366.522,563.653c0.461-3.998,0.817-8.044,0.915-12.143l-3.999-0.095c-0.093,3.929-0.437,7.854-0.89,11.779
			L366.522,563.653z M363.654,587.395c0.288-3.892,0.773-7.826,1.307-11.807l-3.965-0.53c-0.536,4.006-1.033,8.019-1.331,12.042
			L363.654,587.395L363.654,587.395z M365.51,610.474c-1.1-3.77-1.708-7.554-1.971-11.376l-3.99,0.274
			c0.278,4.062,0.93,8.141,2.121,12.223L365.51,610.474z M376.736,630.455c-2.381-2.656-4.626-5.772-6.708-9.406l-3.471,1.988
			c2.208,3.854,4.615,7.204,7.2,10.088L376.736,630.455z M395.818,642.395c-3.639-0.981-7.113-2.465-10.406-4.54l-2.134,3.384
			c3.642,2.296,7.499,3.94,11.499,5.019L395.818,642.395z M418.769,642.94c-3.712,0.625-7.354,0.966-10.89,0.966
			c-0.232,0-0.463-0.002-0.694-0.005l-0.051,4c0.248,0.003,0.496,0.005,0.745,0.005c3.793,0,7.654-0.364,11.554-1.021
			L418.769,642.94z M441.371,636.337c-3.734,1.473-7.469,2.79-11.171,3.896l1.145,3.833c3.83-1.145,7.67-2.5,11.493-4.007
			L441.371,636.337z M462.998,626.384c-3.524,1.809-7.104,3.576-10.71,5.25l1.684,3.628c3.665-1.701,7.291-3.492,10.853-5.319
			L462.998,626.384z M484.087,615.017c-3.392,1.865-6.908,3.81-10.519,5.77l1.908,3.516c3.628-1.97,7.152-3.918,10.538-5.78
			L484.087,615.017z M505.511,603.915c-2.052,0.971-4.097,1.962-6.135,2.973c-1.519,0.754-3.083,1.556-4.69,2.398l1.857,3.543
			c1.587-0.832,3.125-1.621,4.61-2.357c2.017-1.001,4.04-1.981,6.068-2.941L505.511,603.915L505.511,603.915z M527.663,594.351
			c-3.738,1.457-7.46,2.988-11.162,4.588l1.587,3.672c3.659-1.581,7.336-3.094,11.028-4.533L527.663,594.351z M550.479,586.455
			c-3.845,1.16-7.675,2.402-11.488,3.724l1.31,3.779c3.764-1.304,7.542-2.529,11.334-3.674L550.479,586.455z M573.892,580.484
			c-3.938,0.817-7.862,1.729-11.774,2.728l0.99,3.876c3.854-0.985,7.721-1.882,11.598-2.688L573.892,580.484z M597.775,576.71
			c-4.006,0.431-8.004,0.964-11.991,1.596l0.626,3.95c3.923-0.621,7.854-1.146,11.792-1.569L597.775,576.71z M621.938,575.396
			c-4.039,0.001-8.073,0.114-12.102,0.334l0.219,3.994c3.957-0.217,7.919-0.327,11.885-0.328L621.938,575.396z M646.115,576.753
			c-4.025-0.459-8.05-0.798-12.07-1.023l-0.224,3.994c3.945,0.221,7.894,0.554,11.842,1.003L646.115,576.753z M669.982,580.896
			c-3.956-0.929-7.915-1.734-11.874-2.422l-0.684,3.941c3.883,0.674,7.764,1.464,11.643,2.375L669.982,580.896z M693.201,587.804
			c-3.831-1.387-7.668-2.649-11.509-3.793l-1.141,3.834c3.767,1.121,7.529,2.36,11.288,3.721L693.201,587.804z M715.32,597.769
			c-3.539-1.894-7.142-3.719-10.848-5.407l-1.658,3.64c3.605,1.644,7.133,3.43,10.619,5.295L715.32,597.769z M736.281,609.501
			c-3.479-1.915-6.942-3.897-10.429-5.879l-1.977,3.478c3.479,1.978,6.958,3.969,10.477,5.905L736.281,609.501z M757.676,619.657
			c-3.698-1.381-7.301-2.959-10.847-4.669l-1.738,3.603c3.634,1.753,7.349,3.382,11.187,4.814L757.676,619.657z M780.394,624.805
			c-2.908-0.147-5.854-0.512-8.846-1.122c-0.889-0.181-1.77-0.376-2.645-0.584l-0.924,3.893c0.915,0.217,1.838,0.421,2.77,0.611
			c3.19,0.65,6.338,1.039,9.442,1.197L780.394,624.805z M803.4,621.799c-3.763,1.114-7.562,1.968-11.41,2.491l0.539,3.964
			c4.075-0.555,8.074-1.456,12.007-2.619L803.4,621.799z M825.229,612.793c-3.564,1.8-7.146,3.493-10.753,5.009l1.55,3.688
			c3.716-1.562,7.38-3.295,11.007-5.126L825.229,612.793z M846.274,601.395c-3.5,1.926-6.997,3.885-10.501,5.807l1.925,3.507
			c3.523-1.934,7.021-3.893,10.505-5.809L846.274,601.395z M863.911,586.716c-2.411,3.113-4.995,5.979-7.897,8.439l2.588,3.051
			c3.176-2.695,5.941-5.774,8.472-9.041L863.911,586.716z M877.23,566.897c-2.27,3.328-4.409,6.75-6.574,10.1l3.359,2.172
			c2.186-3.384,4.31-6.777,6.52-10.019L877.23,566.897z M892.385,547.997c-2.649,3.028-5.247,6.101-7.794,9.209l3.094,2.535
			c2.521-3.076,5.091-6.115,7.711-9.109L892.385,547.997z M908.934,530.417c-2.87,2.823-5.683,5.704-8.44,8.638l2.914,2.74
			c2.724-2.897,5.5-5.741,8.331-8.526L908.934,530.417L908.934,530.417z M926.879,514.228c-3.113,2.562-6.164,5.196-9.154,7.897
			l2.681,2.969c2.947-2.661,5.951-5.257,9.016-7.778L926.879,514.228z M946.308,499.81c-3.367,2.235-6.667,4.558-9.901,6.962
			l2.385,3.211c3.181-2.363,6.423-4.646,9.729-6.841L946.308,499.81z"/>
		<path fill="#FFFFFF" d="M557.004,46.806c-3.332-2.234-6.685-4.438-10.054-6.613l-2.17,3.36c3.351,2.164,6.684,4.354,9.997,6.575
			L557.004,46.806z M576.74,60.601c-3.242-2.368-6.51-4.699-9.801-6.998l-2.29,3.279c3.269,2.283,6.514,4.599,9.731,6.949
			L576.74,60.601z M595.859,75.262c-3.126-2.522-6.285-5.004-9.473-7.447l-2.434,3.176c3.163,2.423,6.295,4.884,9.395,7.385
			L595.859,75.262z M614.498,90.392c-3.145-2.54-6.259-5.055-9.329-7.546l-2.521,3.105c3.075,2.496,6.191,5.012,9.336,7.552
			L614.498,90.392z M633.137,105.556c-3.109-2.564-6.215-5.1-9.304-7.609l-2.521,3.105c3.083,2.504,6.181,5.033,9.28,7.59
			L633.137,105.556z M651.507,121.097c-3.03-2.645-6.078-5.257-9.134-7.838l-2.581,3.056c3.041,2.569,6.073,5.167,9.084,7.796
			L651.507,121.097z M669.316,137.327c-2.901-2.777-5.843-5.517-8.815-8.221l-2.691,2.959c2.949,2.684,5.866,5.399,8.74,8.151
			L669.316,137.327z M686.219,154.551c-2.71-2.961-5.484-5.879-8.313-8.755l-2.852,2.804c2.797,2.846,5.539,5.729,8.214,8.651
			L686.219,154.551z M701.762,173.062c-2.436-3.194-4.962-6.338-7.567-9.435l-3.061,2.575c2.566,3.051,5.053,6.145,7.446,9.285
			L701.762,173.062z M715.335,193.118c-2.049-3.468-4.219-6.878-6.495-10.232l-3.311,2.246c2.233,3.29,4.357,6.629,6.361,10.021
			L715.335,193.118z M726.153,214.836c-1.523-3.752-3.198-7.439-5.011-11.064l-3.578,1.788c1.768,3.537,3.399,7.13,4.884,10.782
			L726.153,214.836z M733.926,237.798c-1.001-3.816-2.179-7.689-3.521-11.62l-3.785,1.292c1.313,3.849,2.464,7.629,3.438,11.343
			L733.926,237.798z M737.786,261.865c-0.182-3.984-0.621-8.037-1.301-12.158l-3.946,0.65c0.655,3.979,1.077,7.876,1.251,11.689
			L737.786,261.865z M735.267,286.248c1.075-3.956,1.806-7.993,2.216-12.11l-3.98-0.396c-0.389,3.906-1.08,7.723-2.096,11.456
			L735.267,286.248z M724.855,308.481c2.396-3.473,4.442-7.027,6.152-10.663l-3.619-1.703c-1.615,3.433-3.549,6.796-5.825,10.094
			L724.855,308.481z M708.341,326.499c3.224-2.758,6.162-5.576,8.825-8.456l-2.937-2.716c-2.551,2.758-5.376,5.469-8.489,8.133
			L708.341,326.499z M688.3,340.352c3.567-1.964,7.036-4.093,10.381-6.401l-2.272-3.292c-3.227,2.228-6.58,4.285-10.038,6.189
			L688.3,340.352z M666.103,350.233c3.819-1.363,7.589-2.855,11.286-4.491l-1.619-3.657c-3.6,1.592-7.277,3.048-11.012,4.381
			L666.103,350.233z M642.845,356.984c3.916-0.912,7.829-1.921,11.716-3.041l-1.109-3.844c-3.812,1.1-7.658,2.091-11.514,2.989
			L642.845,356.984z M619.08,361.467c0.412-0.056,0.824-0.115,1.237-0.18c3.538-0.547,7.11-1.152,10.698-1.825l-0.738-3.932
			c-3.541,0.665-7.071,1.263-10.571,1.804c-0.388,0.061-0.775,0.116-1.163,0.169L619.08,361.467z M594.649,361.173
			c3.998,0.462,8.044,0.818,12.143,0.916l0.095-3.999c-3.929-0.094-7.854-0.437-11.778-0.891L594.649,361.173z M570.908,358.305
			c3.892,0.288,7.826,0.774,11.807,1.307l0.53-3.965c-4.006-0.535-8.019-1.032-12.042-1.33L570.908,358.305z M547.829,360.161
			c3.77-1.101,7.554-1.708,11.376-1.971l-0.273-3.991c-4.063,0.279-8.142,0.931-12.223,2.122L547.829,360.161z M527.848,371.387
			c2.656-2.381,5.772-4.626,9.406-6.708l-1.988-3.471c-3.854,2.208-7.204,4.615-10.088,7.2L527.848,371.387z M515.908,390.469
			c0.981-3.639,2.465-7.113,4.54-10.406l-3.384-2.134c-2.296,3.642-3.94,7.499-5.019,11.499L515.908,390.469z M515.362,413.419
			c-0.626-3.712-0.966-7.353-0.966-10.89c0-0.231,0.001-0.463,0.004-0.694l-3.999-0.051c-0.003,0.248-0.005,0.496-0.005,0.745
			c0,3.793,0.364,7.654,1.021,11.554L515.362,413.419z M521.966,436.021c-1.473-3.734-2.79-7.469-3.896-11.171l-3.833,1.146
			c1.144,3.829,2.499,7.669,4.007,11.492L521.966,436.021z M531.919,457.648c-1.809-3.524-3.576-7.104-5.25-10.71l-3.628,1.684
			c1.701,3.666,3.492,7.292,5.319,10.853L531.919,457.648z M543.286,478.737c-1.865-3.392-3.81-6.908-5.77-10.519l-3.516,1.908
			c1.97,3.628,3.918,7.152,5.78,10.538L543.286,478.737z M554.388,500.161c-0.971-2.052-1.962-4.097-2.973-6.135
			c-0.754-1.519-1.556-3.083-2.399-4.69l-3.542,1.857c0.832,1.587,1.621,3.125,2.357,4.61c1.001,2.017,1.981,4.04,2.941,6.068
			L554.388,500.161z M563.952,522.313c-1.458-3.738-2.988-7.46-4.588-11.162l-3.672,1.587c1.581,3.659,3.094,7.336,4.533,11.028
			L563.952,522.313z M571.848,545.13c-1.16-3.845-2.402-7.675-3.724-11.488l-3.779,1.31c1.304,3.764,2.529,7.542,3.673,11.334
			L571.848,545.13z M577.818,568.542c-0.817-3.938-1.729-7.862-2.728-11.774l-3.876,0.99c0.985,3.854,1.882,7.721,2.688,11.598
			L577.818,568.542z M581.593,592.426c-0.431-4.006-0.964-8.004-1.596-11.991l-3.95,0.626c0.621,3.923,1.146,7.854,1.568,11.792
			L581.593,592.426z M582.907,616.589c-0.001-4.039-0.114-8.073-0.335-12.102l-3.994,0.219c0.217,3.957,0.328,7.919,0.329,11.885
			L582.907,616.589z M581.55,640.766c0.459-4.025,0.798-8.049,1.022-12.07l-3.993-0.224c-0.221,3.945-0.554,7.894-1.003,11.842
			L581.55,640.766z M577.407,664.633c0.929-3.956,1.734-7.914,2.422-11.874l-3.941-0.684c-0.674,3.883-1.464,7.764-2.375,11.643
			L577.407,664.633z M570.499,687.852c1.387-3.831,2.649-7.668,3.793-11.509l-3.834-1.141c-1.121,3.767-2.36,7.529-3.721,11.288
			L570.499,687.852z M560.534,709.971c1.894-3.539,3.719-7.142,5.407-10.848l-3.64-1.658c-1.644,3.605-3.43,7.133-5.295,10.619
			L560.534,709.971z M548.802,730.932c1.915-3.479,3.897-6.942,5.879-10.429l-3.478-1.977c-1.978,3.479-3.969,6.958-5.905,10.477
			L548.802,730.932z M538.646,752.326c1.381-3.698,2.958-7.301,4.669-10.847l-3.603-1.738c-1.753,3.634-3.382,7.35-4.814,11.187
			L538.646,752.326z M533.498,775.044c0.147-2.908,0.512-5.854,1.122-8.846c0.181-0.889,0.376-1.77,0.583-2.645l-3.892-0.924
			c-0.217,0.915-0.421,1.838-0.611,2.77c-0.65,3.19-1.04,6.338-1.197,9.442L533.498,775.044z M536.504,798.052
			c-1.114-3.764-1.968-7.563-2.492-11.411l-3.963,0.539c0.555,4.075,1.456,8.074,2.619,12.007L536.504,798.052z M545.51,819.88
			c-1.801-3.564-3.493-7.146-5.009-10.752l-3.688,1.549c1.562,3.716,3.294,7.38,5.126,11.007L545.51,819.88z M556.908,840.925
			c-1.926-3.5-3.885-6.997-5.807-10.501l-3.507,1.925c1.934,3.523,3.893,7.021,5.809,10.505L556.908,840.925z M571.587,858.562
			c-3.113-2.411-5.979-4.995-8.44-7.897l-3.05,2.587c2.694,3.177,5.774,5.942,9.041,8.473L571.587,858.562z M591.405,871.881
			c-3.328-2.27-6.75-4.409-10.1-6.574l-2.172,3.359c3.384,2.186,6.777,4.31,10.019,6.52L591.405,871.881z M610.306,887.035
			c-3.028-2.649-6.101-5.247-9.21-7.794l-2.534,3.094c3.076,2.521,6.115,5.091,9.109,7.711L610.306,887.035z M627.886,903.584
			c-2.823-2.87-5.704-5.683-8.638-8.44l-2.74,2.914c2.897,2.724,5.741,5.5,8.526,8.331L627.886,903.584z M644.075,921.529
			c-2.562-3.113-5.196-6.164-7.897-9.154l-2.969,2.681c2.661,2.947,5.257,5.951,7.778,9.016L644.075,921.529z M658.493,940.958
			c-2.235-3.367-4.559-6.667-6.962-9.901l-3.211,2.386c2.363,3.18,4.646,6.422,6.841,9.729L658.493,940.958z"/>
		<path fill="#00A1E4" d="M197.066,38.64c0.817-0.698,1.666-1.379,2.548-2.042l-2.404-3.196c-0.948,0.713-1.861,1.445-2.74,2.196
			L197.066,38.64z M183.064,56.935c1.755-3.474,3.755-6.785,6.102-9.889l-3.19-2.413c-2.513,3.324-4.636,6.846-6.481,10.498
			L183.064,56.935z M174.757,79.045c1.155-3.836,2.354-7.619,3.694-11.298l-3.758-1.369c-1.38,3.786-2.601,7.642-3.767,11.514
			L174.757,79.045z M168.047,101.998c0.698-2.741,1.467-5.471,2.311-8.187c0.338-1.086,0.669-2.172,0.995-3.259l-3.831-1.151
			c-0.323,1.078-0.65,2.152-0.983,3.223c-0.865,2.784-1.652,5.58-2.367,8.387L168.047,101.998z M163.72,125.329
			c0.483-3.935,1.077-7.85,1.794-11.742l-3.934-0.725c-0.732,3.976-1.338,7.97-1.83,11.979L163.72,125.329z M162.017,149.066
			c0.104-3.981,0.289-7.947,0.567-11.897l-3.99-0.281c-0.282,4.014-0.47,8.039-0.576,12.073L162.017,149.066z M162.219,172.935
			c-0.152-3.989-0.255-7.971-0.293-11.941l-4,0.039c0.039,4.014,0.143,8.032,0.296,12.056L162.219,172.935z M163.605,196.828
			c-0.291-3.987-0.562-7.97-0.798-11.947l-3.992,0.236c0.236,4,0.509,8.002,0.801,12.002L163.605,196.828z M165.493,220.741
			c-0.319-3.986-0.646-7.975-0.965-11.962l-3.987,0.319c0.32,3.992,0.646,7.98,0.965,11.962L165.493,220.741z M167.218,244.719
			c-0.235-3.994-0.507-7.995-0.8-12l-3.989,0.291c0.292,3.992,0.562,7.974,0.796,11.944L167.218,244.719z M168.083,268.798
			c-0.031-4.006-0.129-8.024-0.279-12.053l-3.997,0.148c0.148,3.995,0.246,7.974,0.276,11.935L168.083,268.798z M167.307,292.972
			c0.052-0.562,0.098-1.124,0.137-1.686c0.241-3.46,0.409-6.933,0.514-10.418l-3.998-0.12c-0.104,3.437-0.269,6.857-0.506,10.26
			c-0.037,0.531-0.08,1.064-0.13,1.599L167.307,292.972z M162.213,316.812c1.196-3.865,2.277-7.796,3.153-11.747l-3.905-0.866
			c-0.847,3.82-1.898,7.647-3.069,11.431L162.213,316.812z M154.042,339.54c0.944-2.384,1.864-4.758,2.75-7.12
			c0.513-1.365,1.025-2.75,1.535-4.151l-3.76-1.366c-0.503,1.385-1.012,2.757-1.521,4.113c-0.875,2.335-1.786,4.686-2.724,7.052
			L154.042,339.54z M144.922,361.781c1.53-3.717,3.072-7.416,4.592-11.094l-3.696-1.527c-1.517,3.67-3.06,7.37-4.594,11.098
			L144.922,361.781z M136.216,384.054c1.341-3.734,2.759-7.46,4.22-11.171l-3.722-1.466c-1.473,3.74-2.904,7.503-4.263,11.284
			L136.216,384.054z M129.286,406.786c0.915-3.816,1.976-7.633,3.149-11.442l-3.823-1.178c-1.194,3.88-2.278,7.776-3.216,11.688
			L129.286,406.786z M125.79,430.105c0.188-3.9,0.599-7.808,1.199-11.72l-3.954-0.606c-0.619,4.036-1.046,8.082-1.24,12.135
			L125.79,430.105z M127.642,453.43c-0.849-3.852-1.403-7.714-1.701-11.585l-3.988,0.306c0.312,4.049,0.893,8.098,1.783,12.14
			L127.642,453.43z M135.9,475.284c-1.035-1.911-1.996-3.823-2.868-5.735c-0.745-1.635-1.427-3.271-2.049-4.908l-3.739,1.419
			c0.652,1.719,1.367,3.436,2.148,5.148c0.915,2.007,1.917,4,2.991,5.981L135.9,475.284z M148.771,495.237
			c-2.347-3.285-4.625-6.556-6.763-9.819l-3.347,2.191c2.181,3.329,4.49,6.643,6.854,9.953L148.771,495.237z M162.773,514.795
			c-2.272-3.311-4.619-6.585-6.972-9.835l-3.24,2.346c2.345,3.239,4.673,6.487,6.914,9.753L162.773,514.795z M175.179,535.679
			c-1.729-3.635-3.693-7.202-5.814-10.719l-3.426,2.066c2.067,3.427,3.968,6.881,5.628,10.37L175.179,535.679z M182.132,559.227
			c-0.406-4.133-1.261-8.169-2.465-12.116l-3.825,1.166c1.136,3.726,1.932,7.5,2.309,11.342L182.132,559.227z M179.788,583.717
			c1.139-3.868,1.959-7.896,2.364-12.126l-3.981-0.381c-0.38,3.959-1.146,7.73-2.22,11.377L179.788,583.717z M169.6,605.916
			c2.088-3.501,4.047-7.061,5.776-10.734l-3.619-1.704c-1.658,3.522-3.552,6.969-5.593,10.391L169.6,605.916z M156.609,626.178
			c2.156-3.377,4.366-6.706,6.544-10.039l-3.349-2.188c-2.167,3.316-4.385,6.658-6.566,10.073L156.609,626.178z M145.211,646.919
			c1.609-3.674,3.372-7.211,5.253-10.567l-3.49-1.955c-1.945,3.472-3.765,7.125-5.427,10.917L145.211,646.919z M137.843,669.324
			c0.861-3.851,1.919-7.655,3.145-11.375l-3.799-1.252c-1.266,3.841-2.358,7.771-3.249,11.754L137.843,669.324z M135.242,692.675
			c-0.002-0.244-0.003-0.488-0.003-0.732c0-3.651,0.22-7.329,0.637-11.002l-3.974-0.451c-0.434,3.813-0.663,7.642-0.663,11.453
			c0,0.255,0.001,0.51,0.003,0.765L135.242,692.675z M138.779,715.704c-1.189-3.685-2.061-7.483-2.642-11.355l-3.956,0.593
			c0.611,4.073,1.53,8.085,2.791,11.992L138.779,715.704z M149.724,736.169c-2.414-3.19-4.574-6.44-6.389-9.783l-3.516,1.908
			c1.932,3.557,4.204,6.972,6.715,10.288L149.724,736.169z M165.536,753.861c-2.829-2.866-5.598-5.733-8.226-8.629l-2.962,2.688
			c2.685,2.957,5.491,5.863,8.341,8.75L165.536,753.861z M182.391,771.06c-2.724-2.943-5.543-5.83-8.381-8.689l-2.84,2.817
			c2.823,2.844,5.61,5.698,8.285,8.589L182.391,771.06z M197.343,790.305c-2.083-3.471-4.451-6.805-7.013-10.042l-3.137,2.482
			c2.477,3.129,4.744,6.326,6.72,9.618L197.343,790.305z M205.671,813.481c-0.51-4.212-1.525-8.228-2.94-12.067l-3.754,1.383
			c1.317,3.575,2.253,7.281,2.724,11.166L205.671,813.481z M199.736,837.539c2.307-3.494,4.211-7.245,5.295-11.424l-3.872-1.004
			c-0.942,3.635-2.62,6.979-4.761,10.224L199.736,837.539z M184.534,856.31c2.421-3.093,5.074-6.081,7.677-9.112l-3.035-2.604
			c-2.571,2.996-5.268,6.028-7.791,9.251L184.534,856.31z M174.053,876.938c0.917-2.82,1.925-5.602,3.029-8.339
			c0.354-0.878,0.742-1.74,1.16-2.587l-3.587-1.77c-0.459,0.931-0.889,1.884-1.282,2.86c-1.141,2.825-2.18,5.694-3.124,8.598
			L174.053,876.938z M168.549,899.965c0.642-3.914,1.409-7.797,2.317-11.63l-3.892-0.923c-0.933,3.932-1.718,7.905-2.373,11.906
			L168.549,899.965z M166.097,923.604c0.199-3.958,0.493-7.918,0.896-11.862l-3.979-0.407c-0.412,4.019-0.71,8.047-0.913,12.067
			L166.097,923.604z M165.912,947.433c-0.1-3.292-0.154-6.609-0.154-9.944c0-0.658,0.002-1.318,0.007-1.979l-4-0.026
			c-0.005,0.669-0.007,1.338-0.007,2.005c0,3.378,0.056,6.736,0.156,10.065L165.912,947.433z"/>
		<path fill="#FFFFFF" d="M908.914,159.715c0.697,0.817,1.379,1.666,2.042,2.548l3.197-2.404c-0.714-0.948-1.446-1.86-2.197-2.74
			L908.914,159.715z M890.619,145.713c3.474,1.756,6.785,3.756,9.889,6.103l2.412-3.191c-3.323-2.513-6.845-4.636-10.497-6.481
			L890.619,145.713z M868.509,137.405c3.836,1.155,7.619,2.354,11.298,3.695l1.369-3.759c-3.786-1.379-7.642-2.6-11.514-3.767
			L868.509,137.405z M845.556,130.696c2.741,0.697,5.471,1.466,8.187,2.311c1.086,0.337,2.172,0.668,3.259,0.994l1.15-3.83
			c-1.077-0.324-2.151-0.651-3.222-0.983c-2.784-0.866-5.58-1.653-8.387-2.368L845.556,130.696z M822.225,126.369
			c3.935,0.483,7.85,1.076,11.742,1.794l0.725-3.935c-3.977-0.732-7.97-1.337-11.979-1.83L822.225,126.369z M798.487,124.666
			c3.98,0.104,7.947,0.289,11.897,0.566l0.281-3.989c-4.014-0.283-8.039-0.47-12.073-0.576L798.487,124.666z M774.618,124.868
			c3.99-0.152,7.972-0.255,11.941-0.294l-0.038-3.999c-4.014,0.039-8.033,0.143-12.056,0.296L774.618,124.868z M750.726,126.255
			c3.986-0.292,7.97-0.562,11.947-0.798l-0.236-3.993c-4.001,0.237-8.003,0.509-12.003,0.802L750.726,126.255z M726.812,128.143
			c3.986-0.319,7.974-0.646,11.961-0.965l-0.318-3.987c-3.992,0.319-7.98,0.646-11.962,0.965L726.812,128.143z M702.835,129.866
			c3.993-0.235,7.994-0.506,12-0.799l-0.292-3.989c-3.991,0.291-7.974,0.562-11.943,0.795L702.835,129.866z M678.756,130.732
			c4.006-0.031,8.024-0.13,12.053-0.28l-0.149-3.997c-3.994,0.149-7.974,0.246-11.935,0.277L678.756,130.732z M654.582,129.956
			c0.562,0.052,1.124,0.097,1.685,0.136c3.46,0.242,6.934,0.41,10.419,0.515l0.12-3.998c-3.437-0.104-6.857-0.27-10.26-0.507
			c-0.532-0.037-1.064-0.08-1.599-0.129L654.582,129.956z M630.74,124.861c3.866,1.196,7.797,2.277,11.748,3.153l0.865-3.905
			c-3.819-0.847-7.646-1.897-11.43-3.069L630.74,124.861z M608.013,116.691c2.385,0.944,4.759,1.864,7.121,2.75
			c1.365,0.512,2.75,1.025,4.151,1.534l1.366-3.759c-1.386-0.504-2.757-1.013-4.113-1.521c-2.335-0.876-4.686-1.787-7.052-2.725
			L608.013,116.691z M585.772,107.571c3.717,1.53,7.415,3.072,11.094,4.592l1.527-3.697c-3.671-1.517-7.371-3.059-11.098-4.594
			L585.772,107.571z M563.5,98.865c3.734,1.341,7.459,2.758,11.171,4.219l1.465-3.722c-3.74-1.473-7.502-2.904-11.284-4.262
			L563.5,98.865z M540.768,91.935c3.816,0.915,7.632,1.977,11.442,3.149l1.178-3.822c-3.881-1.195-7.777-2.279-11.688-3.217
			L540.768,91.935z M517.448,88.439c3.899,0.188,7.808,0.599,11.719,1.198l0.606-3.954c-4.035-0.619-8.081-1.045-12.134-1.239
			L517.448,88.439z M494.123,90.291c3.852-0.849,7.714-1.404,11.586-1.701l-0.307-3.988c-4.048,0.311-8.097,0.893-12.14,1.783
			L494.123,90.291z M472.27,98.55c1.911-1.035,3.823-1.997,5.736-2.869c1.634-0.745,3.27-1.427,4.907-2.048l-1.419-3.74
			c-1.719,0.652-3.436,1.368-5.147,2.148c-2.008,0.915-4.001,1.918-5.982,2.992L472.27,98.55z M452.316,111.421
			c3.285-2.347,6.556-4.626,9.819-6.763l-2.192-3.347c-3.329,2.181-6.642,4.49-9.952,6.854L452.316,111.421z M432.759,125.422
			c3.311-2.271,6.585-4.619,9.835-6.971l-2.346-3.24c-3.239,2.345-6.487,4.672-9.753,6.913L432.759,125.422z M411.874,137.827
			c3.635-1.729,7.203-3.693,10.719-5.814l-2.066-3.425c-3.426,2.067-6.88,3.968-10.37,5.627L411.874,137.827z M388.327,144.78
			c4.132-0.406,8.168-1.26,12.116-2.464l-1.167-3.826c-3.726,1.137-7.499,1.932-11.341,2.31L388.327,144.78z M363.836,142.437
			c3.868,1.14,7.897,1.96,12.126,2.365l0.382-3.982c-3.959-0.379-7.731-1.146-11.378-2.22L363.836,142.437z M341.637,132.249
			c3.501,2.087,7.061,4.046,10.735,5.775l1.703-3.619c-3.521-1.658-6.968-3.552-10.39-5.593L341.637,132.249z M321.376,119.258
			c3.376,2.156,6.706,4.366,10.039,6.544l2.188-3.349c-3.316-2.167-6.658-4.385-10.074-6.566L321.376,119.258z M300.634,107.859
			c3.674,1.609,7.212,3.372,10.568,5.253l1.955-3.49c-3.473-1.945-7.126-3.765-10.918-5.427L300.634,107.859z M278.229,100.491
			c3.85,0.861,7.654,1.919,11.375,3.145l1.251-3.799c-3.84-1.266-7.77-2.357-11.753-3.249L278.229,100.491z M254.879,97.891
			c0.244-0.002,0.488-0.003,0.731-0.003c3.652,0,7.33,0.22,11.002,0.638l0.452-3.975c-3.813-0.434-7.642-0.663-11.454-0.663
			c-0.254,0-0.509,0.001-0.764,0.003L254.879,97.891z M231.849,101.428c3.686-1.189,7.483-2.061,11.356-2.642l-0.593-3.955
			c-4.074,0.61-8.086,1.529-11.992,2.791L231.849,101.428z M211.385,112.372c3.189-2.414,6.44-4.573,9.783-6.389l-1.909-3.515
			c-3.556,1.931-6.971,4.204-10.288,6.714L211.385,112.372z M193.692,128.185c2.866-2.829,5.733-5.598,8.629-8.226l-2.688-2.961
			c-2.957,2.684-5.863,5.49-8.75,8.34L193.692,128.185z M176.494,145.039c2.943-2.724,5.83-5.543,8.689-8.381l-2.817-2.839
			c-2.845,2.822-5.698,5.609-8.589,8.284L176.494,145.039z M157.249,159.992c3.47-2.083,6.805-4.452,10.041-7.013l-2.481-3.137
			c-3.13,2.476-6.326,4.743-9.618,6.72L157.249,159.992z M134.072,168.319c4.212-0.51,8.227-1.525,12.067-2.94l-1.383-3.753
			c-3.575,1.316-7.281,2.252-11.166,2.723L134.072,168.319z M110.015,162.386c3.494,2.306,7.244,4.21,11.424,5.294l1.004-3.872
			c-3.635-0.942-6.98-2.619-10.225-4.761L110.015,162.386z M91.244,147.183c3.092,2.421,6.08,5.075,9.111,7.677l2.605-3.035
			c-2.997-2.571-6.028-5.267-9.251-7.791L91.244,147.183z M70.615,136.701c2.82,0.918,5.602,1.925,8.338,3.029l0.266,0.106
			l-0.266-0.106c0.879,0.354,1.74,0.742,2.588,1.16l1.77-3.587c-0.931-0.459-1.884-0.889-2.86-1.282l0,0
			c-2.826-1.141-5.694-2.18-8.598-3.124L70.615,136.701z M47.589,131.198c3.914,0.641,7.796,1.408,11.629,2.316l0.923-3.892
			c-3.931-0.933-7.905-1.718-11.905-2.372L47.589,131.198z M23.95,128.745c3.958,0.199,7.917,0.493,11.862,0.897l0.407-3.979
			c-4.02-0.411-8.047-0.71-12.068-0.913L23.95,128.745z M0.121,128.561c3.29-0.1,6.607-0.154,9.94-0.154
			c0.66,0,1.32,0.002,1.981,0.007l0.026-4c-0.67-0.005-1.339-0.007-2.008-0.007c-3.377,0-6.734,0.056-10.062,0.156L0.121,128.561z"
			/>
		<path fill="#00A1E4" d="M896.85,852.782c3.215,1.942,6.261,4.229,9.114,7.018l2.796-2.86c-3.091-3.021-6.395-5.499-9.841-7.581
			L896.85,852.782L896.85,852.782z M875.165,843.89c3.843,1.173,7.597,2.39,11.211,3.811l1.463-3.723
			c-3.768-1.481-7.62-2.728-11.506-3.913L875.165,843.89L875.165,843.89z M852.222,836.358c0.22,0.087,0.439,0.174,0.658,0.262
			c3.598,1.446,7.205,2.668,10.781,3.792l1.2-3.815c-3.521-1.106-7.027-2.297-10.489-3.688c-0.23-0.093-0.46-0.184-0.69-0.274
			L852.222,836.358z M829.456,829.408c3.854,1.103,7.731,2.128,11.552,3.234l1.112-3.843c-3.88-1.123-7.763-2.149-11.564-3.237
			L829.456,829.408z M806.779,820.192c3.512,2.208,7.248,3.959,11.102,5.443l1.438-3.733c-3.678-1.417-7.175-3.062-10.409-5.096
			L806.779,820.192z M790.194,801.86c1.09,2.083,2.295,4.117,3.656,6.079c1.052,1.515,2.167,2.921,3.338,4.228l2.979-2.67
			c-1.062-1.185-2.074-2.46-3.03-3.839c-1.254-1.806-2.376-3.695-3.399-5.652L790.194,801.86z M781.355,779.26
			c1.316,3.75,2.576,7.572,3.975,11.36l3.752-1.386c-1.366-3.699-2.62-7.501-3.952-11.299L781.355,779.26z M771.223,758.284
			c2.303,3.09,4.178,6.449,5.809,9.989l3.633-1.674c-1.715-3.724-3.723-7.335-6.234-10.706L771.223,758.284z M753.54,743.906
			c3.457,1.629,6.729,3.681,9.724,6.114l2.522-3.104c-3.247-2.638-6.793-4.861-10.541-6.628L753.54,743.906z M731.204,739.531
			c0.886-0.053,1.771-0.079,2.654-0.079c2.955,0,5.895,0.294,8.778,0.862l0.774-3.924c-3.134-0.618-6.333-0.938-9.553-0.938
			c-0.963,0-1.928,0.028-2.894,0.087L731.204,739.531z M709.735,746.659c2.855-1.982,6.199-3.657,10.218-4.966l-1.239-3.804
			c-4.353,1.417-8.067,3.267-11.26,5.484L709.735,746.659z M695.902,764.561c1.669-3.657,3.521-7.019,5.754-10.015l-3.208-2.39
			c-2.455,3.296-4.437,6.913-6.185,10.743L695.902,764.561z M687.256,786.918c0.559-1.259,1.073-2.532,1.543-3.817
			c0.941-2.573,1.834-5.094,2.725-7.542l-3.759-1.367c-0.898,2.47-1.79,4.987-2.722,7.536c-0.438,1.199-0.921,2.389-1.443,3.568
			L687.256,786.918z M673.405,807.228c2.875-2.978,5.494-6.174,7.804-9.539l-3.298-2.264c-2.18,3.176-4.659,6.203-7.384,9.025
			L673.405,807.228L673.405,807.228z M653.744,821.928c3.645-1.888,7.137-4.09,10.429-6.555l-2.398-3.202
			c-3.12,2.337-6.428,4.422-9.87,6.205L653.744,821.928z M630.198,829.076c4.113-0.402,8.175-1.241,12.131-2.459l-1.177-3.823
			c-3.714,1.144-7.513,1.927-11.343,2.301L630.198,829.076z M605.799,825.553c3.999,1.413,7.981,2.517,11.929,3.16l0.644-3.948
			c-3.651-0.595-7.411-1.63-11.239-2.982L605.799,825.553L605.799,825.553z M583.717,815.469c3.593,1.884,7.205,3.72,10.82,5.408
			l1.693-3.624c-3.534-1.65-7.094-3.459-10.656-5.327L583.717,815.469z M562.498,804.347c3.477,1.703,7.021,3.562,10.607,5.472
			l1.881-3.53c-3.602-1.918-7.185-3.797-10.729-5.533L562.498,804.347z M540.447,796.191c1.668,0.403,3.336,0.837,5.001,1.302
			c2.032,0.566,4.115,1.268,6.239,2.077l1.425-3.737c-2.219-0.847-4.417-1.587-6.59-2.193c-1.709-0.477-3.421-0.922-5.137-1.337
			L540.447,796.191z M517.117,792.755c3.898,0.181,7.813,0.573,11.732,1.16l0.592-3.957c-4.046-0.604-8.097-1.012-12.14-1.199
			L517.117,792.755z M493.73,794.446c3.841-0.775,7.721-1.289,11.628-1.564l-0.28-3.99c-4.071,0.287-8.122,0.823-12.14,1.634
			L493.73,794.446z M471.673,802.17c3.536-1.821,7.125-3.356,10.758-4.628l-1.32-3.775c-3.807,1.331-7.567,2.94-11.27,4.848
			L471.673,802.17z M451.748,814.953c3.229-2.353,6.476-4.641,9.771-6.79l-2.186-3.35c-3.376,2.202-6.677,4.529-9.94,6.907
			L451.748,814.953z M432.381,829.193c3.291-2.31,6.528-4.7,9.747-7.1l-2.392-3.207c-3.209,2.392-6.415,4.761-9.653,7.032
			L432.381,829.193z M411.437,841.573c3.717-1.692,7.302-3.628,10.792-5.728l-2.061-3.428c-3.386,2.035-6.836,3.897-10.389,5.514
			L411.437,841.573L411.437,841.573z M387.808,848.089c0.858-0.093,1.705-0.195,2.538-0.306c3.292-0.437,6.473-1.104,9.556-1.966
			l-1.076-3.853c-2.913,0.813-5.908,1.442-9.006,1.854c-0.8,0.105-1.615,0.204-2.444,0.294L387.808,848.089z M363.505,848.593
			c3.119,0.18,6.229,0.269,9.285,0.269c0.961,0,1.915-0.009,2.863-0.026l-0.073-4c-0.923,0.018-1.854,0.026-2.79,0.026
			c-2.979,0-6.013-0.087-9.056-0.262L363.505,848.593z M339.416,845.231c3.841,0.907,7.872,1.638,11.988,2.199l0.541-3.963
			c-4.003-0.546-7.91-1.255-11.609-2.129L339.416,845.231z M316.713,836.003c3.534,2.134,7.17,4.047,10.955,5.591l1.511-3.704
			c-3.544-1.444-6.997-3.258-10.398-5.311L316.713,836.003z M296.913,822.12c3.207,2.37,6.423,4.79,9.688,7.133l2.333-3.249
			c-3.217-2.309-6.418-4.717-9.643-7.101L296.913,822.12z M277.114,809.284c0.413,0.199,0.821,0.405,1.225,0.617
			c2.994,1.573,5.943,3.379,8.87,5.327l2.217-3.329c-3.01-2.004-6.074-3.883-9.227-5.539c-0.443-0.233-0.892-0.459-1.344-0.678
			L277.114,809.284z M254.653,804.007c3.988,0.237,7.871,0.742,11.562,1.567l0.872-3.904c-3.934-0.879-8.025-1.407-12.196-1.656
			L254.653,804.007z M231.119,805.195c3.894-0.553,7.841-0.963,11.767-1.179l-0.22-3.994c-4.056,0.224-8.115,0.646-12.109,1.213
			L231.119,805.195z M207.9,810.104c3.634-1.003,7.512-1.967,11.541-2.826l-0.833-3.912c-4.115,0.877-8.068,1.86-11.772,2.883
			L207.9,810.104L207.9,810.104z M185.584,818.082c3.65-1.58,7.32-3.067,11.027-4.408l-1.361-3.761
			c-3.802,1.375-7.548,2.893-11.256,4.498L185.584,818.082z M163.909,828.212c3.611-1.732,7.21-3.478,10.813-5.182l-1.71-3.616
			c-3.627,1.716-7.232,3.464-10.834,5.192L163.909,828.212z M141.883,838.081c3.749-1.481,7.451-3.083,11.126-4.75l-1.653-3.643
			c-3.631,1.647-7.272,3.223-10.942,4.672L141.883,838.081z M118.589,845.103c4.02-0.776,7.96-1.787,11.836-2.977l-1.173-3.824
			c-3.758,1.152-7.559,2.127-11.421,2.873L118.589,845.103z M94.086,846.264c2.583,0.342,5.252,0.537,8.037,0.537
			c0.728,0,1.464-0.013,2.209-0.04l0,0c0.705-0.026,1.407-0.061,2.107-0.104l-0.243-3.993c-0.669,0.041-1.339,0.074-2.013,0.099
			h0.001c-0.695,0.026-1.383,0.038-2.062,0.038c-2.599,0-5.088-0.182-7.513-0.503L94.086,846.264z M70.576,840.058
			c3.863,1.241,7.646,2.511,11.509,3.613l1.098-3.847c-3.744-1.068-7.488-2.323-11.383-3.575L70.576,840.058z M47.585,834.397
			c3.394,0.562,6.767,1.224,10.115,1.995l0,0c0.501,0.115,0.999,0.233,1.493,0.354l0.954-3.884c-0.513-0.126-1.029-0.249-1.55-0.369
			l0.649,0.149l-0.649-0.149c-3.434-0.791-6.889-1.468-10.358-2.043L47.585,834.397z M23.956,831.944
			c3.964,0.194,7.92,0.483,11.859,0.887l0.407-3.979c-4.016-0.41-8.043-0.705-12.071-0.902L23.956,831.944z M0.121,831.791
			c3.459-0.104,6.927-0.163,10.396-0.163c0.511,0,1.021,0.001,1.532,0.004l0.02-4c-0.518-0.003-1.035-0.004-1.552-0.004
			c-3.514,0-7.021,0.059-10.517,0.165L0.121,831.791z"/>
		<path fill="#00A1E4" d="M517.248,684.397l-7.625-44.017c-10.489,5.74-7.716,12.181-7.716,12.181l-0.143,65.168l-4.714,6.438
			c-31.615,14.184-32.846,25.646-32.846,25.646s10.156,5.456,39.711-12.633l7.975-0.255l53.869,36.675c0,0,3.75,5.924,14.411,0.508
			l-32.026-31.145l-13.657-18.79l45.435-29.375l13.708,9.82c0,0,3.198,3.303,8.644,0.222l3.418-1.801l-16.709-19.055l-6.293-24.546
			l-3.416,1.802c-5.618,2.757-4.696,7.261-4.696,7.261l0.367,16.86l-49.897,20.916L517.248,684.397z"/>
		<path fill="#FFFFFF" d="M162.339,739.668l3.957,44.497c10.927-4.853,8.697-11.5,8.697-11.5l5.534-64.933l5.231-6.025
			c32.681-11.518,34.856-22.84,34.856-22.84s-9.671-6.278-40.62,9.302l-7.969-0.405l-50.649-41.008c0,0-3.247-6.213-14.319-1.698
			l29.338,33.688l12.056,19.856l-47.709,25.514l-12.849-10.922c0,0-2.915-3.557-8.595-0.937l-3.557,1.512l15.075,20.372
			l4.238,24.982l3.555-1.511c5.827-2.283,5.281-6.849,5.281-6.849l1.029-16.833l51.458-16.714L162.339,739.668z"/>
		<path fill="#FFFFFF" d="M576.211,473.478l44.274-5.945c-5.337-10.698-11.879-8.173-11.879-8.173l-65.114-2.62l-6.254-4.956
			c-12.97-32.133-24.379-33.798-24.379-33.798s-5.839,9.941,11.112,40.162l-0.048,7.979l-38.697,52.436c0,0-6.062,3.521-1.056,14.38
			l32.34-30.817l19.296-12.932l27.626,46.519l-10.336,13.324c0,0-3.422,3.072-0.551,8.628l1.67,3.486l19.676-15.975l24.769-5.353
			l-1.669-3.482c-2.542-5.72-7.078-4.97-7.078-4.97l-16.862-0.273l-19.002-50.658L576.211,473.478z"/>
		<path fill="#00A1E4" d="M133.424,162.869l-42.469-13.856c0.165,11.955,7.155,12.519,7.155,12.519l57.527,30.616l3.483,7.18
			c-2.259,34.577,7.297,41.028,7.297,41.028s9.575-6.423,7.417-41.006l3.506-7.167l57.618-30.449c0,0,6.989-0.542,7.191-12.497
			l-42.51,13.73l-22.996,3.277l-4.703-53.898l15.094-7.519c0,0,4.417-1.283,4.241-7.534l0.008-3.866l-24.658,5.854l-24.638-5.925
			l-0.008,3.861c-0.192,6.256,4.22,7.549,4.22,7.549l15.073,7.563l-4.863,53.886L133.424,162.869z"/>
		<path fill="#00A1E4" d="M819.651,584.276l44.348,5.379c-2.476-11.697-9.441-10.897-9.441-10.897l-62.363-18.911l-4.807-6.369
			c-4.474-34.361-15.096-38.843-15.096-38.843s-8.151,8.154,0.655,41.667l-2.053,7.709l-50.641,41.02c0,0-6.752,1.885-4.638,13.653
			l39.051-21.694l21.928-7.665l15.039,51.971l-13.354,10.298c0,0-4.084,2.111-2.702,8.213l0.739,3.792l23.061-10.511l25.318,1.047
			l-0.74-3.791c-1.021-6.174-5.601-6.589-5.601-6.589l-16.251-4.506l-5.652-53.809L819.651,584.276z"/>
	</g>
</g>
</svg>
